<svg xmlns="http://www.w3.org/2000/svg" viewBox="0 0 958.98 224.7"><defs><style>.cls-1,.cls-2{fill:#59a4ff;}.cls-1{opacity:0.2;}.cls-2{opacity:0.3;}.cls-3{fill:#4278bc;}.cls-4{fill:#1ed760;}</style></defs><g id="Ebene_2" data-name="Ebene 2"><g id="Ebene_1-2" data-name="Ebene 1"><path class="cls-1" d="M348.75,122.69,12.2,196.85s6.28,22.2,39.58,22.14c43.66-.09,239.07-.85,239.07-.85s59.7-6.29,65.77-55.68C353.86,136,348.75,122.69,348.75,122.69Z"/><path class="cls-2" d="M57.84,218l297-63.5s11.8,43.22-61,63.5C217.59,221.11,57.84,218,57.84,218Z"/><path class="cls-1" d="M53.83,99.27,248,54.85S225.38-7.91,138.51.91C75,10.61,53.83,99.27,53.83,99.27Z"/><path class="cls-2" d="M59,71.69,230.38,31.26S118.55-44.4,59,71.69Z"/><path class="cls-3" d="M763.89,202.35l-9.23-29.47H743.24L734,202.35l-9.14-29.47H710.14l17.64,48.36H739.4l9.65-31.45,10,31.45h11.63l17.12-48.36H773ZM901,196.23c0-14.84-11.31-24.59-25.11-24.59s-25.73,9.75-25.73,25.42c0,14.94,10.89,25.11,25.73,25.11,8.51,0,17-3.32,21.59-9.44l-8-8c-2.91,3.42-7.79,5.39-12.66,5.39-6.54,0-11.11-3.11-12.56-8.71h36.53C900.87,199.24,901,197.58,901,196.23Zm-36.73-3.63c1.45-6.54,6.33-9.14,11.83-9.14,6.12,0,10.9,3.43,11.31,9.14Zm-21.68,3.63c0-14.84-11.31-24.59-25.11-24.59s-25.73,9.75-25.73,25.42c0,14.94,10.89,25.11,25.73,25.11,8.51,0,17-3.32,21.59-9.44l-8-8c-2.91,3.42-7.79,5.39-12.66,5.39-6.54,0-11.11-3.11-12.56-8.71h36.53C842.46,199.24,842.56,197.58,842.56,196.23Zm-36.73-3.63c1.45-6.54,6.33-9.14,11.83-9.14,6.12,0,10.9,3.43,11.31,9.14Zm130,1.55,18.89-21.27H937.29l-12.24,14.74V147H911.46v74.2h13.59v-21l17,21H959Zm-264-46.64h-14.4v27.36a26.47,26.47,0,0,0-10.56-2.15c-13.6,0-24.94,9.79-24.94,24.94s11.34,25,24.94,25,25-9.89,25-25Zm-25,61.17a11,11,0,1,1,10.92-11A10.61,10.61,0,0,1,646.85,208.68ZM446.71,184.76a12.84,12.84,0,0,1,10.17,4.88l10.17-7.16a24.79,24.79,0,0,0-20.44-10.38c-14.11,0-26.56,9.86-26.56,25.22s12.45,25.32,26.56,25.32a24.53,24.53,0,0,0,20.44-10.38l-10.17-7.16A12.84,12.84,0,0,1,446.71,210c-7.67,0-12.86-5.5-12.86-12.66S439,184.76,446.71,184.76Zm30.1,36.94H490.4V147.51H476.81Zm50.33-49.6c-13.81,0-26.05,10-26.05,25.32s12.24,25.22,26.05,25.22,26-10,26-25.22S540.94,172.1,527.14,172.1Zm0,37.88c-6.75,0-12.25-5.09-12.25-12.56s5.5-12.66,12.25-12.66,12.24,5.09,12.24,12.66S533.88,210,527.14,210ZM597,198.15c0,8.71-6,11.31-10.89,11.31-4.67,0-9.24-3.43-9.24-11V173.35H563.25v26.56c-.1,14.53,6.54,22.93,19.2,22.93,4.77,0,12.45-2.69,14.52-9v7.88h13.6V173.35H597ZM517.3,70.4a8.2,8.2,0,1,0-8.66-8.24A8.42,8.42,0,0,0,517.3,70.4Zm-6.78,57.25h13.66V79.05H510.52Zm71.64-9.49L571.94,111a12.91,12.91,0,0,1-10.22,4.9c-7.71,0-12.93-5.53-12.93-12.73S554,90.52,561.72,90.52a12.89,12.89,0,0,1,10.22,4.91l10.22-7.2A24.93,24.93,0,0,0,561.62,77.8c-14.19,0-26.7,9.91-26.7,25.34s12.51,25.45,26.7,25.45A24.67,24.67,0,0,0,582.16,118.16ZM657,77.8c-13.87,0-26.18,10-26.18,25.45s12.31,25.34,26.18,25.34,26.18-10,26.18-25.34S670.85,77.8,657,77.8Zm0,38.07c-6.78,0-12.31-5.11-12.31-12.62S650.2,90.52,657,90.52s12.31,5.11,12.31,12.73S663.76,115.87,657,115.87Zm74.56-2.51c0-4-1.46-11.26-13.14-14.39l-8-2.08c-2.71-.73-4.79-1.88-4.79-4.18,0-2.5,2.5-4.06,5.63-4.06s5.94,1.77,5.94,5h13c.1-11.47-10.33-15.85-19.19-15.85-11.26,0-19.09,7-19.09,14.5,0,5.11,1.67,12.09,14.19,15.43l6.46,1.57c3.65.93,5.32,2,5.32,4.06,0,2.82-3,4.49-7,4.49-4.79,0-7.19-3-7.19-5.84H690.87c.11,10.74,10,16.58,20.23,16.58C721.12,128.59,731.54,123.58,731.54,113.36Zm34-35.56c-13.87,0-26.18,10-26.18,25.45s12.31,25.34,26.18,25.34,26.18-10,26.18-25.34S779.41,77.8,765.54,77.8Zm0,38.07c-6.78,0-12.31-5.11-12.31-12.62s5.53-12.73,12.31-12.73,12.31,5.11,12.31,12.73S772.32,115.87,765.54,115.87Zm40.78,11.78H820V89.59h10.64V79.05H820V75.92c.1-5.84,2.61-10.11,10.43-10.11h3.13V53.08H827.7c-13.87,0-21.38,8.35-21.38,23v3h-9.18V89.59h9.18Zm51.52,0V89.59h10.32V79.05H857.84V61.22H844.17V79.05h-8.86V89.59h8.86v38.06ZM475.47,78c-7.13,0-12.55,3.8-15.61,6.87C457.52,82.33,451,78,441.33,78c-13.28,0-21.28,10.7-21.28,21.56v28.6h14.54V101.88c0-7.07,3.93-9.8,8.25-9.8s8.22,2.44,8.22,9.8l0,26.23h14.63V101.88c0-7.16,4.11-9.8,8.24-9.8s8.26,2.57,8.26,9.66v26.37h14.54V99.47C496.76,88.69,488.83,78,475.47,78Zm137,.16c-13.28,0-21.28,10.71-21.29,21.56v28.61h14.55V102c0-7.07,3.93-9.8,8.25-9.8a7.76,7.76,0,0,1,6,2.5l9.48-11.14A27.56,27.56,0,0,0,612.51,78.11Z"/><path class="cls-4" d="M55.14,125.5a8.62,8.62,0,0,0-7.43,12.94,8.65,8.65,0,0,0,7.46,4.28,8.61,8.61,0,0,0,7.43-12.94A8.67,8.67,0,0,0,55.14,125.5Z"/><path class="cls-4" d="M276.13,90.2a8.65,8.65,0,0,1-8.31,6.41,8.61,8.61,0,1,1,7.43-12.93A8.56,8.56,0,0,1,276.13,90.2Z"/><path class="cls-3" d="M159.84,0A112.48,112.48,0,0,0,47.49,112.35c0,.48,0,1,0,1.42a101.81,101.81,0,0,1,14-.3c0-.37,0-.74,0-1.12A98.37,98.37,0,0,1,250.1,73.23a91.3,91.3,0,0,1,13.09-4.9A112.25,112.25,0,0,0,159.84,0Z"/><path class="cls-3" d="M290.51,80.48c-.78,0-1.56,0-2.34.07.66,4.82.85,9.15,1.48,13.94l.86,0a58.12,58.12,0,0,1,0,116.24H46.08l-.49,0a33.23,33.23,0,0,1-12.33-63.35A73,73,0,0,1,32,132.77a47.23,47.23,0,0,0,12,91.82,6.36,6.36,0,0,0,1.24.11H290.51a72.11,72.11,0,1,0,0-144.22Z"/></g></g></svg>