<svg height="137" viewBox="0 0 493 137" width="493" xmlns="http://www.w3.org/2000/svg"><g fill="none"><path d="m4.58 5.64h3.89v3.89h-3.89z" fill="#c7362f"/><path d="m170.32 5.16h3.89v3.89h-3.89z" fill="#c7362f"/><path d="m200.94 5.16h3.89v3.89h-3.89z" fill="#c7362f"/><path d="m170.32 51.48h3.89v3.89h-3.89z" fill="#c7362f"/><path d="m200.94 51.48h3.89v3.89h-3.89z" fill="#c7362f"/><path d="m4.58 28.04h3.89v3.89h-3.89z" fill="#c7362f"/><path d="m35.55 28.04h3.89v3.89h-3.89z" fill="#c7362f"/><g fill="#0079bf"><path d="m72.6 13.3h-.49c-.3560698.0535815-.7161865-.0673002-.9678113-.3248689-.2516249-.2575687-.3640674-.6204091-.3021887-.9751311v-4l.69-.64 2.37 3.51c.64 1 1.43 2 2.07 2.87h4.15v-.34c-.43-.14-.88-.75-1.25-1.25l-5.08-6.9 3.6-3.35c.6405392-.50087916 1.4374085-.75941899 2.25-.73v-.39h-4.64v.39h.55c.78 0 .86.52.45.94l-5.2 5.13v-4.83c-.054632-.3515947.0610503-.70823067.3116601-.96081377s.6063275-.37105901.9583399-.31918623h.32v-.39h-6.17v.39h.31c.3535953-.05545281.7123978.06143095.9654834.31451656.2530857.2530856.3699694.61188814.3145166.96548344v9.59c.0554528.3535953-.0614309.7123978-.3145166.9654834-.2530856.2530857-.6118881.3699694-.9654834.3145166h-.31v.4h6.38z"/><path d="m106.21 13.91c3 0 4.58-1.83 4.58-4.93v-6.57c-.055453-.3535953.061431-.71239784.314517-.96548344.253085-.25308561.611888-.36996937.965483-.31451656h.31v-.39h-6.64v.39h.74c.353595-.05545281.712398.06143095.965483.31451656.253086.2530856.36997.61188814.314517.96548344v8c0 1.16.26 2-.58 3.15-.78-1.71-1.85-2.32-3-2.32-.84 0-1.4.47-1.4 1.06 0 .7.96 1.61 3.43 1.61z"/><path d="m135.91 1.91 4.66 11.79h1.07l4.6-11.7c.18-.43.43-.87 1.46-.87v-.39h-3.7v.39h.61c.72 0 .93.42.69 1.08l-3 8.1-3.18-8.1c-.28-.73 0-1.08.73-1.08h.55v-.39h-5.67v.39c.532565-.06958034 1.035334.26275888 1.18.78z"/><path d="m72.13 36.85c2.3385107.062166 4.4799905-1.3034727 5.41-3.45l-.34-.21c-.7577162 1.531333-2.2926867 2.5252264-4 2.59-2.09 0-4.06-1.76-4.06-5.72 0-3.2 1.29-6.24 3.63-6.24 1.69 0 3.54 1.62 4.08 4.53l.46-.05-.53-4.86c-.3869317.1308585-.7916241.2016797-1.2.21-1 0-1.5-.42-3.06-.42-4.42 0-6.67 3.36-6.67 7.05-.1123352 1.7238143.5031309 3.4157741 1.6967662 4.6645294 1.1936352 1.2487554 2.8561067 1.9399247 4.5832338 1.9054706z"/><path d="m72.13 59.64c2.3385107.062166 4.4799905-1.3034727 5.41-3.45l-.34-.19c-.7577162 1.531333-2.2926867 2.5252264-4 2.59-2.09 0-4.06-1.76-4.06-5.72 0-3.2 1.29-6.24 3.63-6.24 1.69 0 3.54 1.62 4.08 4.53h.46l-.53-4.86c-.3869317.1308585-.7916241.2016797-1.2.21-1 0-1.5-.42-3.06-.42-4.42 0-6.67 3.35-6.67 7-.1064992 1.7204648.5115703 3.4070358 1.7045364 4.6512918s2.8520416 1.9327328 4.5754636 1.8987082z"/><path d="m140.94 36.85c2.338511.062166 4.479991-1.3034727 5.41-3.45l-.35-.21c-.754317 1.5343577-2.291318 2.5295654-4 2.59-2 0-4-1.78-4-5.72 0-3.2 1.3-6.24 3.63-6.24 1.69 0 3.54 1.62 4.08 4.53l.47-.05-.54-4.86c-.383469.1309292-.784879.2017663-1.19.21-1 0-1.51-.42-3.06-.42-4.43 0-6.68 3.36-6.68 7.05-.111538 1.7149998.497282 3.398805 1.679834 4.6458952 1.182553 1.2470901 2.831663 1.9444407 4.550166 1.9241048z"/><path d="m172.71 36.3c-2.2 0-4-1.68-4.74-4.63l-.46.07.48 4.54c.351067-.0840063.709366-.1342351 1.07-.15 1.11 0 2 .72 3.7.72 2.06 0 4.58-1 4.58-4.13 0-2.78-2-3.51-4-4.08s-3.65-1-3.65-2.76c0-1.49 1.11-2.08 2.39-2.08 2 0 3.49 1.42 4 3.81l.43-.08-.43-4.09c-.340844.1347755-.7035.2059509-1.07.21-1 0-1.73-.4-3-.4-2.18 0-4.5 1.07-4.5 3.94 0 3.18 2.82 3.78 4.69 4.34 1.5.45 3 1 3 2.63.05 1.31-.95 2.14-2.49 2.14z"/><path d="m204 23.56h-6.83v.44h.31c.353595-.0554528.712398.0614309.965483.3145166.253086.2530856.36997.6118881.314517.9654834v9.61c.055453.3535953-.061431.7123978-.314517.9654834-.253085.2530857-.611888.3699694-.965483.3145166h-.31v.4h6.38v-.4h-.48c-.353595.0554528-.712398-.0614309-.965483-.3145166-.253086-.2530856-.36997-.6118881-.314517-.9654834v-4.4h2.21c2.73 0 4.24-1.71 4.24-3.58s-1.37-3.35-4.24-3.35zm-1.8 6.44h-.43v-5.32c0-.41.19-.64.6-.64 1.78 0 2.56 1.46 2.56 3s-.76 2.96-2.73 2.96z"/><path d="m6.44 59.68c2.34014996.0577036 4.4808919-1.3114215 5.41-3.46l-.35-.22c-.749842 1.5397656-2.28841544 2.5398383-4 2.6-2.1 0-4.07-1.77-4.07-5.73 0-3.19 1.3-6.24 3.63-6.24 1.7 0 3.55 1.63 4.08 4.53h.47l-.54-4.86c-.3820012.1365487-.7843345.2075487-1.19.21-1 0-1.5-.42-3.06-.42-4.42 0-6.67 3.36-6.67 7.06-.10084939 1.7188797.52114224 3.401708 1.71566166 4.6418052 1.19451942 1.2400973 2.85288845 1.9246386 4.57433834 1.8881948z"/><path d="m34.57 59c1.1 0 2 .73 3.69.73 2.06 0 4.59-1 4.59-4.13 0-2.79-2-3.51-4-4.08s-3.65-1-3.65-2.77c0-1.49 1.11-2.07 2.39-2.07 2 0 3.49 1.41 4 3.8l.43-.07-.43-4.1c-.3427206.1402295-.7097039.2115873-1.08.21-1 0-1.73-.4-3-.4-2.17-.05-4.51 1.02-4.51 3.88 0 3.19 2.81 3.79 4.68 4.34 1.51.45 3 1 3 2.63 0 1.31-1 2.14-2.54 2.14-2.19 0-4-1.67-4.73-4.63l-.47.07.48 4.55c.3792285-.0702163.7643436-.1037046 1.15-.1z"/><path d="m38.21 13.48c-2.19 0-4-1.68-4.73-4.64l-.47.07.48 4.55c.3543894-.0860442.7158856-.1395992 1.08-.16 1.1 0 2 .73 3.69.73 2.06 0 4.59-1 4.59-4.13 0-2.78-2-3.51-4-4.08s-3.65-1-3.65-2.77c0-1.48 1.11-2.07 2.39-2.07 2 0 3.49 1.42 4 3.8l.43-.07-.43-4.09c-.3446244.13256189-.7107596.20036472-1.08.2-1 0-1.73-.39-3-.39-2.18 0-4.49 1.07-4.49 3.94 0 3.18 2.81 3.78 4.68 4.33 1.51.46 3 1 3 2.63.05 1.32-.95 2.15-2.49 2.15z"/><path d="m104.25 59c1.11 0 2 .73 3.7.73 2.06 0 4.58-1 4.58-4.13 0-2.79-2-3.51-4-4.08s-3.65-1-3.65-2.77c0-1.49 1.11-2.07 2.39-2.07 2 0 3.49 1.41 4 3.8l.44-.07-.44-4.1c-.339307.139948-.702968.2113207-1.07.21-1 0-1.73-.4-3-.4-2.18 0-4.49 1.07-4.49 3.94 0 3.19 2.81 3.79 4.68 4.34 1.5.45 3 1 3 2.63 0 1.31-1 2.14-2.54 2.14-2.19 0-4-1.67-4.74-4.63l-.46.07.48 4.55c.36746-.0884911.74246-.1420625 1.12-.16z"/><path d="m107.9 36.3c-2.19 0-4-1.68-4.74-4.63l-.46.07.48 4.54c.351067-.0840063.709366-.1342351 1.07-.15 1.11 0 2 .72 3.7.72 2.06 0 4.58-1 4.58-4.13 0-2.78-2-3.51-4-4.08s-3.65-1-3.65-2.76c0-1.49 1.11-2.08 2.39-2.08 2 0 3.49 1.42 4 3.81l.44-.08-.44-4.09c-.340844.1347755-.7035.2059509-1.07.21-1 0-1.73-.4-3-.4-2.18 0-4.49 1.07-4.49 3.94 0 3.18 2.81 3.78 4.68 4.34 1.5.45 3 1 3 2.63.05 1.31-.95 2.14-2.49 2.14z"/><path d="m142.47 46.38h-6.83v.4h.36c.352656-.0509623.708692.0673959.960648.319352s.370314.6079915.319352.960648v9.61c.074102.3613019-.034425.7359259-.290179 1.0016703s-.625946.3885394-.989821.3283297h-.32v.4h6.32v-.4h-.48c-.353595.0554528-.712398-.0614309-.965483-.3145166-.253086-.2530856-.36997-.6118881-.314517-.9654834v-4.4h2.21c2.74 0 4.24-1.72 4.24-3.58s-1.33-3.36-4.22-3.36zm-1.78 6.45h-.43v-5.32c0-.42.19-.64.61-.64 1.78 0 2.55 1.45 2.55 3s-.76 2.96-2.73 2.96z"/><path d="m4.31 96.08c-1.88 0-2.33-.94-2.47-2h-1.1c.17 1.59 1.07 3 3.57 3 .79457713.0634674 1.58174573-.1918944 2.18774903-.7097176.60600331-.5178233.98101306-1.2555303 1.04225097-2.0502824 0-1.76-1.1-2.39-3.18-2.71-1.91-.29-2.25-.76-2.25-1.68s.67-1.51 2-1.51 2 .48 2.2 1.66h1c-.19-1.66-1.35-2.58-3.22-2.58-.73818772-.077778-1.47609559.1495056-2.04259402.6291409-.56649843.4796354-.91237108 1.1699526-.95740598 1.9108591 0 1.66 1.17 2.27 3.13 2.57 1.78.29 2.26.73 2.26 1.79-.05702727.5140839-.32011313.9830591-.72910486 1.2996979-.40899173.3166387-.92891576.4538647-1.44089514.3803021z"/><path d="m15.55 94.42h-1c-.0431419.4869243-.278269.936668-.6534922 1.2499794s-.859698.4644352-1.3465078.4200206c-1.32 0-2.24-.89-2.24-2.56v-.11c-.0818043-.642378.1097818-1.2895964.5280718-1.7839392.4182901-.4943428 1.0248706-.7904121 1.6719282-.8160608.9320354-.1057776 1.7753024.5590202 1.89 1.49h1.08c-.0751557-.7172349-.4351538-1.3742572-.9992026-1.823616-.5640487-.4493588-1.2849068-.6534187-2.0007974-.566384-.9126117-.0013423-1.7855348.3730417-2.413599 1.0351575-.62806416.6621159-.95588099 1.5535721-.906401 2.4648425v.11c-.0642032.9279216.27225026 1.8388821.924198 2.5023011.6519478.663419 1.5569017 1.0157089 2.485802.9676989 1.5219915.0710866 2.8324906-1.0635065 2.98-2.58z"/><path d="m20.49 90.86c1.1 0 1.61.54 1.61 1.74v4.27h1.08v-4.19c0-2-1-2.76-2.4-2.76-.9002654-.0555083-1.7522859.4113522-2.19 1.2v-4.35h-1.09v10.1h1.09v-4.14c-.0205506-.5072668.1740696-.9996244.5359008-1.3557425s.8572237-.5428782 1.3640992-.5142575z"/><path d="m34.42 90.04h-1.11l-1.61 5.5-1.55-5.5h-.94l-1.66 5.5-1.6-5.5h-1.17l2.1 6.83h1.19l1.59-5.12 1.43 5.12h1.2z"/><path d="m38.87 97c1.55 0 2.68-.72 2.92-2.09h-1.09c-.14.8-.76 1.19-1.82 1.19-1.39 0-2.14-.86-2.19-2.42h5.15v-.35c0-2.44-1.49-3.4-3.07-3.4-.9013201.0021839-1.7604658.3820316-2.3686506 1.0472337-.6081848.6652022-.9097279 1.5548579-.8313494 2.4527663v.11c-.0715049.9096451.2474896 1.8067365.8772426 2.4670229.629753.6602865 1.510748 1.0213659 2.4227574.9929771zm-.1-6.17c1.12 0 1.85.56 2 2h-4c.0210944-1.0973677.9027511-1.9834327 2-2.01z"/><path d="m44.37 87.18c-.397645 0-.72.322355-.72.72s.322355.72.72.72.72-.322355.72-.72-.322355-.72-.72-.72z"/><path d="m43.85 90.04h1.08v6.84h-1.08z"/><path d="m52.32 95.92h-3.9l3.95-5.69v-.19h-5.32v.91h3.65l-4.04 5.77v.15h5.66z"/><path d="m59.76 94.9h-1.08c-.15.8-.76 1.19-1.82 1.19-1.4 0-2.14-.86-2.19-2.42h5.14v-.35c0-2.44-1.49-3.4-3.07-3.4-.9013201.0021839-1.7604658.3820316-2.3686506 1.0472337-.6081848.6652022-.9097279 1.5548579-.8313494 2.4527663v.11c-.0747503.9130956.2442141 1.8146214.8765663 2.4775405.6323523.6629191 1.5178285 1.0240546 2.4334337.9924595 1.54 0 2.68-.73 2.91-2.1zm-3-4.08c1.13 0 1.86.57 2 2h-4c.0307807-1.0838687.8964954-1.958328 1.98-2z"/><path d="m62.88 91.27v-1.27h-1.08v6.83h1.08v-3.75c0-1.68.88-2.11 2.25-2.18v-1c-.9566949-.0351802-1.8420741.5039173-2.25 1.37z"/><path d="m67.58 88.61c.2756351.0326542.5454953-.0960383.6936154-.3307753.14812-.234737.14812-.5337124 0-.7684494-.1481201-.234737-.4179803-.3634295-.6936154-.3307753-.2756351-.0326542-.5454953.0960383-.6936154.3307753-.14812.234737-.14812.5337124 0 .7684494.1481201.234737.4179803.3634295.6936154.3307753z"/><path d="m67.06 90.04h1.08v6.84h-1.08z"/><path d="m72.8 96.09c-1.1 0-1.53-.51-1.61-1.32h-1.06c.07 1.4 1.05 2.22 2.68 2.22s2.51-.83 2.51-2.08c0-1.45-1-1.76-2.41-2-1.25-.22-1.59-.47-1.59-1.09s.51-1 1.29-1c.3355703-.0571556.6798808.026154.9522032.2303958s.4487065.5114531.4877968.8496042h1c-.046968-.5991451-.3380924-1.1526611-.8051595-1.5308531s-1.0690293-.5478231-1.6648405-.4691469c-1.1707405-.1101218-2.2092331.7493204-2.32 1.92 0 1.19.6 1.69 2.38 2 1.06.2 1.6.44 1.6 1.15s-.41 1.12-1.44 1.12z"/><path d="m80.13 97c1.5260337.0824615 2.8472629-1.0493915 3-2.57h-1c-.0431419.4869243-.278269.936668-.6534922 1.2499794s-.859698.4644352-1.3465078.4200206c-1.32 0-2.24-.89-2.24-2.56v-.11c-.0818043-.642378.1097818-1.2895964.5280718-1.7839392.4182901-.4943428 1.0248706-.7904121 1.6719282-.8160608.9320354-.1057776 1.7753024.5590202 1.89 1.49h1.08c-.0751557-.7172349-.4351538-1.3742572-.9992026-1.823616-.5640487-.4493588-1.2849068-.6534187-2.0007974-.566384-.9126117-.0013423-1.7855348.3730417-2.413599 1.0351575-.6280642.6621159-.955881 1.5535721-.906401 2.4648425v.11c-.0606896.9226038.2744566 1.8273847.9215311 2.4878206.6470745.660436 1.5448175 1.0140022 2.4684689.9721794z"/><path d="m89.66 92.6v4.27h1.09v-4.19c0-2-1-2.76-2.41-2.76-.9002654-.0555083-1.7522859.4113522-2.19 1.2v-4.35h-1.09v10.1h1.09v-4.14c-.0207938-.5091108.1751594-1.0031824.5392475-1.3596456s.8621958-.5419171 1.3707525-.5103544c1.09 0 1.6.54 1.6 1.74z"/><path d="m95.89 89.92c-.9013201.0021839-1.7604658.3820316-2.3686506 1.0472337-.6081848.6652022-.9097279 1.5548579-.8313494 2.4527663v.11c-.0747503.9130956.2442141 1.8146214.8765663 2.4775405.6323523.6629191 1.5178285 1.0240546 2.4334337.9924595 1.55 0 2.68-.72 2.92-2.09h-1.09c-.14.8-.75 1.19-1.81 1.19-1.4 0-2.15-.86-2.2-2.42h5.18v-.35c0-2.45-1.53-3.41-3.11-3.41zm-2 2.88c.0263599-1.0934648.9065352-1.9736401 2-2 1.13 0 1.86.57 2 2z"/><path d="m103.12 96.09c-1.1 0-1.53-.51-1.61-1.32h-1.06c.06 1.4 1 2.22 2.68 2.22s2.51-.83 2.51-2.08c0-1.45-1-1.76-2.41-2-1.25-.22-1.59-.47-1.59-1.09s.51-1 1.29-1c.335147-.0541894.67792.0302742.949519.2339741.2716.2036998.448662.5091116.490481.8460259h1c-.044353-.598303-.333315-1.1518821-.798825-1.5303452s-1.066414-.5483536-1.661175-.4696548c-1.17074-.1101218-2.209233.7493204-2.32 1.92 0 1.19.6 1.69 2.38 2 1.06.2 1.59.44 1.59 1.15s-.41 1.12-1.44 1.12z"/><path d="m117.94 87.52h-1.26l-4.07 4.51v-4.5h-1.14v9.34h1.14v-4.56l4.17 4.56h1.37l-4.36-4.81z"/><path d="m122.21 97c.922154.0241563 1.81209-.3399407 2.452868-1.0035348.640777-.6635941.973526-1.5657197.917132-2.4864652v-.1c.067851-1.2423328-.556356-2.4204617-1.622359-3.0620463-1.066004-.6415847-2.399278-.6415847-3.465282 0-1.066003.6415846-1.69021 1.8197135-1.622359 3.0620463v.11c-.049957.9129563.281101 1.80572.914219 2.4653761s1.511544 1.0270724 2.425781 1.0146239zm-2.21-3.59c0-1.57.86-2.59 2.24-2.59s2.23 1 2.23 2.6v.1c.086043.6451509-.108982 1.2961991-.535544 1.7877968-.426561.4915977-1.043618.7764466-1.694456.7822032-1.39 0-2.24-1-2.24-2.57z"/><path d="m128.68 92.69c-.025563-.4874727.154816-.963265.497121-1.3112746.342304-.3480096.81505-.5362277 1.302879-.5187254.94 0 1.45.5 1.45 1.7v4.31h1.07v-4.18c-.025563-.4874727.154816-.963265.497121-1.3112746.342304-.3480096.81505-.5362277 1.302879-.5187254.94 0 1.45.5 1.45 1.7v4.31h1.09v-4.23c0-2-1.07-2.72-2.3-2.72-.954032-.0276897-1.848724.4617142-2.34 1.28-.313849-.8190775-1.124776-1.3380708-2-1.28-.831298-.0183961-1.60318.4292958-2 1.16v-1h-1.09v6.83h1.09z"/><path d="m140.89 95.75c.490246.8045259 1.378697 1.2793872 2.32 1.24 1.88 0 3.11-1.43 3.11-3.53v-.1c.093956-.8803316-.191736-1.7589809-.785467-2.4157119-.59373-.6567309-1.439216-1.0292878-2.324533-1.0243378-.937139.0084473-1.807937.485134-2.32 1.2700497v-1.19h-1.08v9.21h1.08zm0-2.34c0-1.75 1-2.59 2.24-2.59s2.1.87 2.1 2.59v.11c0 1.66-.73 2.57-2.09 2.57s-2.25-.82-2.25-2.57z"/><path d="m151.12 97c1.358983.1514886 2.608722-.7597795 2.88-2.1h-1c-.14.8-.76 1.19-1.82 1.19-1.4 0-2.14-.86-2.19-2.42h5.15v-.35c0-2.44-1.49-3.4000008-3.07-3.4000008-.903061-.0006154-1.764877.3780152-2.37527 1.0435528-.610393.6655375-.913257 1.5568074-.83473 2.4564472v.1100008c-.070463.9034225.243002 1.7947195.863462 2.4551482s1.49048 1.0288522 2.396538 1.0148518zm-.1-6.17c1.12 0 1.85.56 2 2h-4.000026c-.005532-1.100701.879366-1.9990069 1.980026-2.01z"/><path d="m156.31 95.16c-.044704.497783.135888.9894219.492183 1.3399077s.850836.522972 1.347817.4700923c.316563.00727.631776-.0435707.93-.15v-.91c-.268844.0985474-.553726.1460278-.84.14-.55 0-.85-.33-.85-1v-4.05h1.61v-1h-1.6v-1.56h-1.08v1.56h-1v1h1z"/><path d="m163.83 97c1.54 0 2.68-.72 2.91-2.09h-1.08c-.15.8-.76 1.19-1.82 1.19-1.4 0-2.14-.86-2.19-2.42h5.15v-.35c0-2.44-1.49-3.4000008-3.07-3.4000008-.903061-.0006154-1.764877.3780152-2.37527 1.0435528-.610393.6655375-.913257 1.5568074-.83473 2.4564472v.1100008c-.068498.9106378.252893 1.8075314.884168 2.467414s1.513054 1.0206831 2.425832.992586zm-.1-6.17c1.12 0 1.85.56 2 2h-4.000025c-.002636-.5321635.206903-1.0434441.582264-1.4206825.375362-.3772383.885591-.5893175 1.417761-.5893175z"/><path d="m169.87 92.73c-.020551-.5072668.17407-.9996244.535901-1.3557425s.857223-.5428782 1.364099-.5142575c1.1 0 1.61.54 1.61 1.74v4.27h1.09v-4.19c0-2-1-2.76-2.41-2.76-.900265-.0555083-1.752286.4113522-2.19 1.2v-1.12h-1.09v6.83h1.09z"/><path d="m181.75 95.92h-3.89l3.95-5.69v-.19h-5.32v.91h3.64l-4.03 5.77v.15h5.65z"/><path d="m188.52 95.92h-3.89l3.94-5.69v-.19h-5.32v.91h3.65l-4.04 5.77v.15h5.66z"/><path d="m193.05 97c1.384112.1909353 2.677313-.7296478 2.95-2.1h-1.09c-.14.8-.76 1.19-1.82 1.19-1.39 0-2.14-.86-2.19-2.42h5.1v-.35c0-2.44-1.49-3.4000015-3.07-3.4000015-.902319-.0008774-1.763342.3780532-2.372199 1.0439908-.608857.6659377-.909319 1.5573812-.827801 2.4560092v.1100015c-.075002.9148938.245274 1.8181241.879878 2.4813995.634603.6632753 1.522809 1.0231263 2.440122.9886005zm-.1-6.17c1.12 0 1.85.56 2 2h-4c.02179-1.1165324.933255-2.0102126 2.05-2.01z"/><path d="m202.6 96.87h1.09v-4.19c0-2-1-2.76-2.41-2.76-.900265-.0555083-1.752286.4113522-2.19 1.2v-1.12h-1.09v6.83h1.09v-4.14c-.020551-.5072668.17407-.9996244.535901-1.3557425s.857223-.5428782 1.364099-.5142575c1.1 0 1.61.54 1.61 1.74z"/><path d="m206.37 95.16c-.045212.4997185.13666.9932831.495314 1.3441822.358653.3508992.856075.5219408 1.354686.4658178.313375.0083589.62551-.0425327.92-.15v-.91c-.265143.0994094-.546919.146938-.83.14-.55 0-.85-.33-.85-1v-4.05h1.59v-1h-1.59v-1.56h-1.09v1.56h-1v1h1z"/><path d="m212.19 93.12c0-1.68.87-2.11 2.25-2.18v-1c-.952053-.038746-1.836163.4917196-2.25 1.35v-1.29h-1.09v6.83h1.09z"/><path d="m220.82 95.79v1.08h1.09v-6.87h-1.09v4.14c.020117.5036106-.171833.992586-.529172 1.3480248-.35734.3554388-.847332.5447774-1.350828.5219752-1.07 0-1.58-.54-1.58-1.74v-4.27h-1.08v4.32c0 1.89 1 2.63 2.37 2.63.885174.0579356 1.726456-.391782 2.17-1.16z"/><path d="m225.51 92.69c-.022484-.4866403.158899-.9606281.500514-1.3079369s.812541-.5365011 1.299486-.5220631c.95 0 1.46.5 1.46 1.7v4.31h1.08v-4.18c-.022484-.4866403.158899-.9606281.500514-1.3079369s.812541-.5365011 1.299486-.5220631c1 0 1.46.5 1.46 1.7v4.31h1.08v-4.23c0-2-1.07-2.72-2.3-2.72-.954032-.0276897-1.848724.4617142-2.34 1.28-.313849-.8190775-1.124776-1.3380708-2-1.28-.830709-.0161118-1.60149.4309415-2 1.16v-1h-1.08v6.83h1.08z"/><path d="m240.66 96.87h1.09v-5.87h1.67v-1h-1.67v-1.23c0-.69.29-1.18 1-1.18.263905.0002163.525311.0511394.77.15v-.92c-.25934-.0942031-.534206-.1383174-.81-.13-1.36 0-2 .81-2 2.2v1.11h-1v1h1z"/><path d="m247.59 97c.892683.0452327 1.73374-.4198679 2.17-1.2v1.08h1.08v-6.88h-1.08v4.14c.020117.5036106-.171833.992586-.529172 1.3480248-.35734.3554388-.847332.5447774-1.350828.5219752-1.08 0-1.59-.54-1.59-1.74v-4.27h-1.08v4.32c0 1.93 1.02 2.68 2.38 2.68z"/><path d="m246.83 88.59c.284903.0040418.543826-.1650083.654729-.4274709.110903-.2624627.051653-.5659562-.149825-.7674334-.201477-.2014772-.50497-.2607277-.767433-.1498247-.262463.1109031-.431513.3698258-.427471.654729.005374.3788281.311172.6846257.69.69z"/><path d="m249.29 88.59c.351766-.0422709.616484-.3407033.616484-.695s-.264718-.6527291-.616484-.695c-.268205-.0322296-.53102.092743-.675304.3211178-.144283.2283748-.144283.5193896 0 .7477644.144284.2283748.407099.3533474.675304.3211178z"/><path d="m254.45 91.27v-1.27h-1.09v6.83h1.09v-3.75c0-1.68.87-2.11 2.24-2.18v-1c-.953821-.0337808-1.835571.5055041-2.24 1.37z"/><path d="m265 97c.943435-.0236386 1.816363-.5048683 2.34-1.29v1.17h1.08v-10.1h-1.12v4.37c-.456083-.7923183-1.316811-1.2632099-2.23-1.22-1.89 0-3.19 1.48-3.19 3.57v.1c0 2.12 1.29 3.4 3.12 3.4zm-2-3.55c0-1.66.81-2.62 2.17-2.62s2.17.83 2.17 2.58v.1c0 1.75-1 2.59-2.26 2.59s-2.08-.82-2.08-2.55z"/><path d="m276.62 94.9h-1.09c-.14.8-.76 1.19-1.82 1.19-1.39 0-2.14-.86-2.19-2.42h5.15v-.35c0-2.44-1.49-3.4000015-3.07-3.4000015-.902319-.0008774-1.763342.3780532-2.372199 1.0439908-.608857.6659377-.909319 1.5573812-.827801 2.4560092v.1100015c-.071505.9096451.24749 1.8067365.877243 2.4670229.629753.6602865 1.510748 1.0213659 2.422757.9929771 1.370211.1744973 2.6433-.7367208 2.92-2.09zm-3-4.08c1.12 0 1.85.57 2 2h-4c.025871-1.085963.894352-1.9632159 1.98-2z"/><path d="m283.25 92.6v4.27h1.08v-4.19c0-2-1-2.76-2.4-2.76-.902135-.0521204-1.755404.413299-2.2 1.2v-1.12h-1.08v6.83h1.08v-4.14c-.020794-.5091108.175159-1.0031824.539248-1.3596456.364088-.3564632.862195-.5419171 1.370752-.5103544 1.1.04 1.61.58 1.61 1.78z"/><path d="m293.87 94.34v-6.81h-1.14v6.76c0 1.25-.58 1.77-1.51 1.77-.427902.0106587-.85242-.078353-1.24-.26v.94c.404647.1936704.852383.2797734 1.3.25.714619.0609578 1.41905-.2008808 1.920358-.7138015.501307-.5129207.746947-1.2231623.669642-1.9361985z"/><path d="m298.7 97c.893796.0500755 1.73725-.4163506 2.17-1.2v1.08h1.13v-6.88h-1.09v4.14c.020117.5036106-.171833.992586-.529172 1.3480248-.35734.3554388-.847332.5447774-1.350828.5219752-1.07 0-1.58-.54-1.58-1.74v-4.27h-1.09v4.32c-.04 1.93.98 2.68 2.34 2.68z"/><path d="m306.58 96.09c-1.1 0-1.53-.51-1.61-1.32h-1.06c.07 1.4 1 2.22 2.68 2.22s2.51-.83 2.51-2.08c0-1.45-1-1.76-2.4-2-1.26-.22-1.6-.47-1.6-1.09s.51-1 1.3-1 1.28.33 1.43 1.08h1.05c-.04413-.6002934-.334494-1.1556275-.802284-1.5344047-.46779-.3787773-1.071372-.5472862-1.667716-.4655953-1.17074-.1101218-2.209233.7493204-2.32 1.92 0 1.19.61 1.69 2.38 2 1.06.2 1.6.44 1.6 1.15s-.46 1.12-1.49 1.12z"/><path d="m311.31 95.16c-.044704.497783.135888.9894219.492183 1.3399077s.850836.522972 1.347817.4700923c.316625.0081908.632006-.042677.93-.15v-.91c-.268844.0985474-.553726.1460278-.84.14-.55 0-.85-.33-.85-1v-4.05h1.61v-1h-1.6v-1.56h-1.08v1.56h-1v1h1z"/><path d="m316.59 88.61c.362345-.0429267.635295-.3501207.635295-.715s-.27295-.6720733-.635295-.715c-.275635-.0326542-.545495.0960383-.693615.3307753s-.14812.5337124 0 .7684494.41798.3634295.693615.3307753z"/><path d="m316.06 90.04h1.08v6.84h-1.08z"/><path d="m324.53 95.92h-3.9l3.95-5.69v-.19h-5.32v.91h3.65l-4.04 5.77v.15h5.66z"/><path d="m329.43 96.87 2.45-6.83h-1.12l-2 5.74-2.03-5.74h-1.17l2.48 6.83z"/><path d="m336.27 97c.922154.0241563 1.81209-.3399407 2.452868-1.0035348.640777-.6635941.973526-1.5657197.917132-2.4864652v-.1c.067851-1.2423328-.556356-2.4204617-1.622359-3.0620463-1.066004-.6415847-2.399278-.6415847-3.465282 0-1.066003.6415846-1.69021 1.8197135-1.622359 3.0620463v.11c-.049957.9129563.281101 1.80572.914219 2.4653761s1.511544 1.0270724 2.425781 1.0146239zm-2.22-3.58c0-1.57.86-2.59 2.24-2.59s2.23 1 2.23 2.6v.1c.086043.6451509-.108982 1.2961991-.535544 1.7877968-.426561.4915977-1.043618.7764466-1.694456.7822032-1.39 0-2.24-1-2.24-2.57z"/><path d="m341.68 86.77h1.1v10.1h-1.1z"/><path d="m345.35 86.77h1.1v10.1h-1.1z"/><path d="m353.83 95.92h-3.89l3.94-5.69v-.19h-5.32v.91h3.65l-4.04 5.77v.15h5.66z"/><path d="m357.94 97c.893796.0500755 1.73725-.4163506 2.17-1.2v1.08h1.09v-6.88h-1.09v4.14c.020117.5036106-.171833.992586-.529172 1.3480248-.35734.3554388-.847332.5447774-1.350828.5219752-1.07 0-1.58-.54-1.58-1.74v-4.27h-1.09v4.32c0 1.93 1.02 2.68 2.38 2.68z"/><path d="m366.32 96.65c.936452-.019684 1.802019-.5030526 2.31-1.29v1c.061909.5927545-.153505 1.1808629-.583632 1.5933936-.430126.4125307-1.026715.6032058-1.616368.5166064-1.16 0-1.81-.41-2-1.19h-1.11c.18 1.15 1.07 2.1 3.1 2.1s3.25-1 3.26-3v-6.38h-1.08v1.1c-.459414-.7939242-1.323825-1.2647191-2.24-1.22-.878222.0123742-1.713535.3818559-2.313494 1.0233206-.599958.6414648-.91282 1.4995922-.866506 2.3766794v.09c-.059395.8622599.247428 1.7096131.845113 2.3339467.597685.6243335 1.430858.9678038 2.294887.9460533zm-2-3.38c-.077586-.6215838.115962-1.2465064.531292-1.7154274s1.012304-.7365225 1.638708-.7345726c.626954-.0211589 1.231087.2364302 1.649882.7034736s.609245 1.0955794.520118 1.7165264v.09c.063246.6275834-.145924 1.2521257-.574393 1.7150248-.428468.4628992-1.035015.7196225-1.665607.7049752-.603664-.0105662-1.175067-.2744651-1.574525-.7271842s-.590155-1.0525344-.525475-1.6528158z"/><path d="m5.22 114.72c-2 0-3.21-1.43-3.21-3.81v-.11c0-2.35 1.29-3.85 3.23-3.85.63989102-.084287 1.28628278.098314 1.78749015.504954.50120736.40664.81310797 1.001521.86250985 1.645046h1.11c-.19-2-1.84-3-3.79-3-1.22735408.013367-2.39468383.533089-3.22588526 1.43624-.83120143.90315-1.25245193 2.109516-1.16411474 3.33376v.1c0 2.88 1.66 4.73 4.37 4.73 1.96564163.19168 3.71520718-1.244664 3.91-3.21h-1.05c-.18704348 1.3852-1.43947047 2.372094-2.83 2.23z"/><path d="m13.77 108.579997c-.9042278-.001138-1.767.379146-2.3761969 1.047359s-.9083112 1.562373-.8238031 2.462644v.1c-.0715049.909645.2474896 1.806736.8772426 2.467023.629753.660286 1.510748 1.021366 2.4227574.992977 1.3702109.174497 2.6433004-.736721 2.92-2.09h-1.09c-.14.8-.76 1.19-1.82 1.19-1.39 0-2.14-.86-2.19-2.42h5.15v-.33c0-2.46-1.49-3.420003-3.07-3.420003zm-2 2.880003c.0263599-1.093465.9065352-1.97364 2-2 1.12 0 1.85.57 2 2z"/><path d="m22.1 108.58c-.9021351-.05212-1.7554039.413299-2.2 1.2v-1.08h-1.08v6.84h1.08v-4.15c-.0207938-.509111.1751594-1.003182.5392475-1.359646.3640881-.356463.8621958-.541917 1.3707525-.510354 1.1 0 1.61.54 1.61 1.74v4.28h1.08v-4.2c0-1.99-.99-2.76-2.4-2.76z"/><path d="m28.28 113.72v-4.1h1.59v-.92h-1.59v-1.56h-1.09v1.56h-1v.92h1v4.2c-.0469791.492951.1285671.981137.4787153 1.331285s.8383339.525694 1.3312847.478715c.3133748.008359.6255099-.042533.92-.15v-.91c-.2651427.099409-.5469192.146938-.83.14-.51 0-.81-.32-.81-.99z"/><path d="m33 109.93v-1.23h-1.08v6.84h1.08v-3.75c0-1.69.87-2.12 2.24-2.19v-1c-.9438984-.03832-1.8217999.482934-2.24 1.33z"/><path d="m42.73 112c0-2.44-1.49-3.400003-3.07-3.400003-.9042278-.001138-1.767.379146-2.3761969 1.047359s-.9083112 1.562373-.8238031 2.462644v.1c-.0715049.909645.2474896 1.806736.8772426 2.467023.629753.660286 1.510748 1.021366 2.4227574.992977 1.55 0 2.68-.72 2.92-2.09h-1.09c-.14.8-.76 1.19-1.82 1.19-1.39 0-2.14-.86-2.19-2.42h5.15zm-5.11-.52c.0263599-1.093465.9065352-1.97364 2-2 1.12 0 1.85.57 2 2z"/><path d="m50.6 114.75c-1.09 0-1.53-.51-1.6-1.32h-1.06c.06 1.4 1 2.22 2.68 2.22s2.51-.83 2.51-2.07c0-1.46-1-1.77-2.41-2-1.25-.22-1.59-.47-1.59-1.09s.51-1 1.29-1c.3351471-.054189.6779196.030274.9495195.233974.2715998.2037.4486612.509112.4904805.846026h1c-.04413-.600293-.3344937-1.155627-.8022836-1.534405-.4677899-.378777-1.0713723-.547286-1.6677164-.465595-1.1670175-.104271-2.1991326.753591-2.31 1.92 0 1.19.6 1.69 2.38 2 1.06.19 1.59.43 1.59 1.15s-.41 1.11-1.45 1.11z"/><path d="m60.66 115.54v-6.84h-1.08v4.14c.0201165.503611-.1718326.992586-.5291721 1.348025-.3573396.355439-.8473318.544777-1.3508279.521975-1.07 0-1.58-.53-1.58-1.74v-4.27h-1.12v4.3c0 1.88 1 2.62 2.38 2.62.893238.04764 1.7354838-.418118 2.17-1.2v1.09z"/><path d="m63.21 108.7h1.08v6.84h-1.08z"/><path d="m63.73 105.84c-.397645 0-.72.322355-.72.72s.322355.72.72.72.72-.322355.72-.72c-.0053803-.395395-.324605-.71462-.72-.72z"/><path d="m69.06 111.55c-1.25-.22-1.59-.47-1.59-1.09s.51-1 1.29-1c.3351471-.054189.6779196.030274.9495195.233974.2715998.2037.4486612.509112.4904805.846026h1c-.04413-.600293-.3344937-1.155627-.8022836-1.534405-.4677899-.378777-1.0713723-.547286-1.6677164-.465595-1.1670175-.104271-2.1991326.753591-2.31 1.92 0 1.19.6 1.69 2.38 2 1.06.19 1.59.43 1.59 1.15s-.45 1.08-1.49 1.08-1.53-.51-1.6-1.32h-1.02c.06 1.4 1 2.22 2.68 2.22s2.51-.83 2.51-2.08c0-1.39-1-1.7-2.41-1.96z"/><path d="m73.05 110.5c0 1.19.61 1.69 2.38 2 1.06.19 1.6.43 1.6 1.15s-.46 1.08-1.49 1.08-1.53-.51-1.61-1.32h-1.06c.07 1.4 1 2.22 2.68 2.22s2.51-.83 2.51-2.08c0-1.45-1-1.76-2.4-2-1.26-.22-1.6-.47-1.6-1.09s.51-1 1.3-1 1.28.33 1.43 1.08h1c-.04413-.600293-.3344937-1.155627-.8022836-1.534405-.4677899-.378777-1.0713723-.547286-1.6677164-.465595-1.1644873-.074821-2.1742517.797046-2.27 1.96z"/><path d="m82.72 108.58c-.903222.001939-1.7641032.383143-2.3726234 1.050614-.6085201.667471-.908725 1.559833-.8273766 2.459386v.1c-.0717397.911437.2485696 1.81022.8805677 2.470859.6319981.660638 1.5157118 1.020441 2.4294323.989141 1.54 0 2.68-.72 2.91-2.09h-1.08c-.15.8-.76 1.19-1.82 1.19-1.4 0-2.14-.86-2.19-2.42h5.14v-.33c0-2.46-1.48-3.42-3.07-3.42zm-2 2.88c0-1.104569.8954305-2 2-2 1.13 0 1.86.57 2 2z"/><path d="m96.48 114.36v1.17h1.09v-10.1h-1.09v4.37c-.4560834-.792318-1.3168115-1.26321-2.23-1.22-1.89 0-3.19 1.48-3.19 3.57v.1c0 2.14 1.29 3.4 3.08 3.4.9448086-.018537 1.8199432-.500983 2.34-1.29zm-4.3-2.16v-.1c0-1.66.81-2.62 2.17-2.62s2.17.83 2.17 2.58v.1c0 1.76-1 2.59-2.26 2.59s-2.08-.82-2.08-2.55z"/><path d="m105.8 113.56h-1.09c-.14.8-.76 1.19-1.82 1.19-1.4 0-2.14-.86-2.19-2.42h5.15v-.33c0-2.44-1.49-3.400001-3.07-3.400001-.904963-.000866-1.768519.379119-2.37925 1.046927-.6107299.667808-.9122533 1.561788-.83075 2.463074v.1c-.0684977.910638.2528934 1.807531.884168 2.467414.631275.659883 1.513054 1.020683 2.425832.992586 1.376561.173217 2.652321-.74865 2.92-2.11zm-3-4.08c1.12 0 1.85.57 2 2h-4c-.000055-1.096806.883249-1.989032 1.98-2z"/><path d="m114.47 114.75c-1.32 0-2.24-.89-2.24-2.56v-.1c-.081689-.643376.109651-1.291575.527634-1.787454.417983-.49588 1.024446-.794166 1.672366-.822546.932035-.105778 1.775302.55902 1.89 1.49h1.07c-.072515-.718364-.431815-1.37708-.99653-1.82697-.564716-.44989-1.287069-.652891-2.00347-.56303-.914449-.001499-1.789026.374245-2.417409 1.03859s-.954925 1.558459-.902591 2.47141v.1c-.059564.913593.268971 1.809934.904827 2.468635s1.520047 1.018658 2.435173.991365c1.529593.093007 2.857137-1.044256 3-2.57h-1c-.095013.986414-.950427 1.722775-1.94 1.67z"/><path d="m125.6 112.16v-.1c0-1.855677-1.504323-3.36-3.36-3.36s-3.36 1.504323-3.36 3.36v.11c0 1.855677 1.504323 3.36 3.36 3.36s3.36-1.504323 3.36-3.36zm-5.6 0v-.11c0-1.57.87-2.59 2.24-2.59s2.23 1 2.23 2.61v.09c.086043.645151-.108982 1.296199-.535544 1.787797-.426561.491598-1.043618.776446-1.694456.782203-1.39.02-2.24-1-2.24-2.55z"/><path d="m137.37 115.54v-4.24c0-2-1.07-2.72-2.3-2.72-.953013-.023468-1.845719.464849-2.34 1.28-.313849-.819077-1.124776-1.338071-2-1.28-.833461-.016439-1.605881.435427-2 1.17v-1.05h-1.08v6.84h1.08v-4.19c-.022484-.48664.158899-.960628.500514-1.307937s.812541-.536501 1.299486-.522063c.95 0 1.46.5 1.46 1.7v4.32h1.01v-4.19c-.022484-.48664.158899-.960628.500514-1.307937s.812541-.536501 1.299486-.522063c.95 0 1.46.5 1.46 1.7v4.32z"/><path d="m143.22 108.579961c-.933581.011763-1.799898.48805-2.31 1.270039v-1.15h-1.09v9.21h1.09v-3.5c.485418.804542 1.371216 1.280035 2.31 1.24 1.88 0 3.11-1.43 3.11-3.53v-.12c.087874-.877074-.200566-1.750241-.793598-2.402386-.593033-.652145-1.434948-1.022005-2.316402-1.017653zm2 3.600039c0 1.66-.73 2.57-2.09 2.57s-2.24-.82-2.24-2.57v-.11c0-1.75 1-2.59 2.23-2.59s2.1.87 2.1 2.59z"/><path d="m151.35 107.53 1.37-1.93h-1.37l-.81 1.93z"/><path d="m151.13 115.65c1.370211.174497 2.6433-.736721 2.92-2.09h-1.05c-.14.8-.76 1.19-1.81 1.19-1.4 0-2.15-.86-2.2-2.42h5.15v-.33c0-2.44-1.49-3.4-3.07-3.4-.903222.001939-1.764103.383143-2.372623 1.050614-.608521.667471-.908725 1.559833-.827377 2.459386v.1c-.067901.899986.247412 1.786799.868237 2.441903.620826.655104 1.489429 1.017578 2.391763.998097zm-.1-6.17c1.12 0 1.85.57 2 2h-4c.025591-1.082245.888265-1.958057 1.97-2z"/><path d="m158.16 115.63c.316689.009142.632245-.041754.93-.15v-.91c-.268844.098547-.553726.146028-.84.14-.55 0-.85-.32-.85-1v-4.1h1.6v-.92h-1.6v-1.55h-1.08v1.55h-1v.92h1v4.2c-.05175.500369.126187.997214.483827 1.350966.35764.353753.856399.526249 1.356173.469034z"/><path d="m166.76 113.56h-1.09c-.14.8-.75 1.19-1.81 1.19-1.4 0-2.15-.86-2.2-2.42h5.15v-.33c0-2.44-1.49-3.4-3.07-3.4-.903222.001939-1.764103.383143-2.372623 1.050614-.608521.667471-.908725 1.559833-.827377 2.459386v.1c-.071505.909645.24749 1.806736.877243 2.467023.629753.660286 1.510748 1.021366 2.422757.992977 1.55-.02 2.68-.74 2.92-2.11zm-3-4.08c1.12 0 1.86.57 2 2h-4c.025871-1.085963.894352-1.963216 1.98-2z"/><path d="m169.88 111.39c-.020794-.509111.175159-1.003182.539248-1.359646.364088-.356463.862195-.541917 1.370752-.510354 1.09 0 1.6.54 1.6 1.74v4.28h1.09v-4.2c0-2-1-2.76-2.41-2.76-.900265-.055508-1.752286.411352-2.19 1.2v-1.08h-1.09v6.84h1.09z"/><path d="m182.75 113.08h-1c-.043142.486924-.278269.936668-.653492 1.249979-.375223.313312-.859698.464436-1.346508.420021-1.32 0-2.23-.89-2.23-2.56v-.1c0-1.61.95-2.61 2.19-2.61.935697-.111698 1.785407.554653 1.9 1.49h1.07c-.075156-.717235-.435154-1.374257-.999203-1.823616-.564048-.449359-1.284906-.653419-2.000797-.566384-.914449-.001499-1.789026.374245-2.417409 1.03859s-.954925 1.558459-.902591 2.47141v.1c-.05977.915384.270089 1.813396.908181 2.47244s1.524982 1.017735 2.441819.98756c1.541077.104817 2.886936-1.032965 3.04-2.57z"/><path d="m187.5 115.65c1.370211.174497 2.6433-.736721 2.92-2.09h-1.09c-.14.8-.76 1.19-1.82 1.19-1.39 0-2.14-.86-2.19-2.42h5.15v-.33c0-2.44-1.49-3.400001-3.07-3.400001-.904963-.000866-1.768519.379119-2.37925 1.046927-.61073.667808-.912253 1.561788-.83075 2.463074v.1c-.065757.908111.257223 1.801425.888519 2.457515.631296.656091 1.511512 1.013227 2.421481.982485zm-.1-6.17c1.12 0 1.85.57 2 2h-4c.02636-1.093465.906535-1.97364 2-2z"/><path d="m192.13 110.5c0 1.19.61 1.69 2.38 2 1.06.19 1.6.43 1.6 1.15s-.46 1.08-1.49 1.08-1.53-.51-1.61-1.32h-1.01c.07 1.4 1.05 2.22 2.68 2.22s2.51-.83 2.51-2.08c0-1.45-1-1.76-2.4-2s-1.6-.47-1.6-1.09.51-1 1.3-1 1.28.33 1.43 1.08h1c-.04413-.600293-.334494-1.155627-.802284-1.534405-.46779-.378777-1.071372-.547286-1.667716-.465595-.568008-.049801-1.132404.129136-1.567962.497107-.435557.367971-.706257.894547-.752038 1.462893z"/><path d="m208.61 113.56h-1.08c-.15.8-.76 1.19-1.82 1.19-1.4 0-2.14-.86-2.19-2.42h5.14v-.33c0-2.44-1.49-3.4-3.07-3.4-.903222.001939-1.764103.383143-2.372623 1.050614-.608521.667471-.908725 1.559833-.827377 2.459386v.1c-.07174.911437.24857 1.81022.880568 2.470859.631998.660638 1.515712 1.020441 2.429432.989141 1.54-.02 2.68-.74 2.91-2.11zm-3-4.08c1.13 0 1.86.57 2 2h-4c.030781-1.083869.896495-1.958328 1.98-2z"/><path d="m213.93 108.58c-.903771-.059478-1.760704.40794-2.2 1.2v-1.08h-1.09v6.84h1.09v-4.15c-.020794-.509111.175159-1.003182.539248-1.359646.364088-.356463.862195-.541917 1.370752-.510354 1.1 0 1.61.54 1.61 1.74v4.28h1.08v-4.2c0-1.99-.99-2.76-2.4-2.76z"/><path d="m231.25 115.54h1.09v-4.24c0-2-1.07-2.72-2.3-2.72-.953013-.023468-1.845719.464849-2.34 1.28-.313849-.819077-1.124776-1.338071-2-1.28-.834064-.018763-1.607611.433762-2 1.17v-1.05h-1.09v6.84h1.09v-4.19c-.025563-.487473.154816-.963265.497121-1.311275.342304-.348009.81505-.536227 1.302879-.518725.94 0 1.45.5 1.45 1.7v4.32h1.05v-4.19c-.025563-.487473.154816-.963265.497121-1.311275.342304-.348009.81505-.536227 1.302879-.518725.94 0 1.45.5 1.45 1.7z"/><path d="m238.63 115.54h1.08v-4.54c.084494-.679436-.152156-1.35948-.640195-1.83968-.488039-.480199-1.171826-.705806-1.849805-.61032-.643658-.087384-1.295248.089864-1.805946.491261s-.836883.992659-.904054 1.638739h1.09c.1-.83.62-1.23 1.57-1.23s1.46.46 1.46 1.55v.49h-1c-1.75 0-3.43.54-3.43 2.12 0 1.4 1 2 2.28 2 .833363.048002 1.63459-.328161 2.13-1zm-2-.75c-1 0-1.29-.44-1.29-1.15 0-1 1-1.35 2.38-1.35h.94v.85c-.03 1.06-.91 1.65-2.06 1.65z"/><path d="m245.17 115.48v-.91c-.265397.098462-.54699.14596-.83.14-.55 0-.85-.32-.85-1v-4.11h1.59v-.91h-1.59v-1.55h-1.09v1.55h-1v.91h1v4.21c-.048495.498725.130882.99267.488097 1.344061.357216.351392.854042.522625 1.351903.465939.316052.012346.63159-.035154.93-.14z"/><path d="m247.16 108.7h1.08v6.84h-1.08z"/><path d="m247.68 105.84c-.397645 0-.72.322355-.72.72s.322355.72.72.72.72-.322355.72-.72c-.00538-.395395-.324605-.71462-.72-.72z"/><path d="m253.48 108.58c-.903222.001939-1.764103.383143-2.372623 1.050614-.608521.667471-.908725 1.559833-.827377 2.459386v.1c-.071505.909645.24749 1.806736.877243 2.467023.629753.660286 1.510748 1.021366 2.422757.992977 1.55 0 2.68-.72 2.92-2.09h-1.09c-.14.8-.76 1.19-1.81 1.19-1.4 0-2.15-.86-2.2-2.42h5.15v-.33c0-2.46-1.49-3.42-3.07-3.42zm-2 2.88c.02636-1.093465.906535-1.97364 2-2 1.12 0 1.85.57 2 2z"/><path d="m253.96 107.53-.81-1.93h-1.36l1.36 1.93z"/><path d="m261.87 109.6v-1c-.952053-.038746-1.836163.49172-2.25 1.35v-1.25h-1.09v6.84h1.09v-3.75c0-1.69.87-2.12 2.25-2.19z"/><path d="m266.27 108.58c-.903222.001939-1.764103.383143-2.372623 1.050614-.608521.667471-.908725 1.559833-.827377 2.459386v.1c-.071505.909645.24749 1.806736.877243 2.467023.629753.660286 1.510748 1.021366 2.422757.992977 1.370211.174497 2.6433-.736721 2.92-2.09h-1.09c-.14.8-.76 1.19-1.81 1.19-1.4 0-2.15-.86-2.2-2.42h5.15v-.33c0-2.46-1.49-3.42-3.07-3.42zm-2 2.88c.02636-1.093465.906535-1.97364 2-2 1.12 0 1.85.57 2 2z"/><path d="m281.11 115.54v-10.11h-1.11v4.37c-.454412-.794024-1.316276-1.265537-2.23-1.22-.909904.01237-1.772945.405646-2.379276 1.084204-.606331.678559-.900407 1.580238-.810724 2.485796v.11c0 2.13 1.29 3.39 3.08 3.39.945271-.016806 1.82116-.499668 2.34-1.29v1.18zm-3.31-.79c-1.15 0-2.07-.82-2.07-2.55v-.1c0-1.66.8-2.62 2.16-2.62s2.17.83 2.17 2.58v.1c0 1.76-.99 2.59-2.26 2.59z"/><path d="m283.52 109.39h.79l.19-3.2h-1.18z"/><path d="m291.85 113.56h-1.09c-.14.8-.76 1.19-1.81 1.19-1.4 0-2.15-.86-2.2-2.42h5.15v-.33c0-2.44-1.49-3.4-3.07-3.4-.903222.001939-1.764103.383143-2.372623 1.050614-.608521.667471-.908725 1.559833-.827377 2.459386v.1c-.071505.909645.24749 1.806736.877243 2.467023.629753.660286 1.510748 1.021366 2.422757.992977 1.55-.02 2.68-.74 2.92-2.11zm-3-4.08c1.12 0 1.85.57 2 2h-4c.025871-1.085963.894352-1.963216 1.98-2z"/><path d="m299.12 115.53-2.49-3.59 2.26-3.24h-1.18l-1.66 2.48-1.67-2.48h-1.27l2.29 3.32-2.45 3.51h1.17l1.88-2.75 1.84 2.75z"/><path d="m304.96 105.6h-1.36l-.81 1.93h.81z"/><path d="m306.29 113.56h-1.08c-.15.8-.76 1.19-1.82 1.19-1.4 0-2.14-.86-2.19-2.42h5.15v-.33c0-2.44-1.49-3.4-3.08-3.4-.903222.001939-1.764103.383143-2.372623 1.050614-.608521.667471-.908725 1.559833-.827377 2.459386v.1c-.07174.911437.24857 1.81022.880568 2.470859.631998.660638 1.515712 1.020441 2.429432.989141 1.54-.02 2.68-.74 2.91-2.11zm-3-4.08c1.13 0 1.86.57 2 2h-4c-.000055-1.096806.883249-1.989032 1.98-2z"/><path d="m314.14 113.08h-1c-.043142.486924-.278269.936668-.653492 1.249979-.375223.313312-.859698.464436-1.346508.420021-1.32 0-2.24-.89-2.24-2.56v-.1c-.081689-.643376.109651-1.291575.527634-1.787454.417983-.49588 1.024446-.794166 1.672366-.822546.454063-.053291.910557.07746 1.267554.363057.356997.285598.584765.702257.632446 1.156943h1.07c-.072515-.718364-.431815-1.37708-.99653-1.82697-.564716-.44989-1.287069-.652891-2.00347-.56303-.914449-.001499-1.789026.374245-2.417409 1.03859s-.954925 1.558459-.902591 2.47141v.1c-.05977.915384.270089 1.813396.908181 2.47244s1.524982 1.017735 2.441819.98756c1.555336.115054 2.912454-1.045639 3.04-2.6z"/><path d="m317.12 108.7h-1.12v4.3c0 1.88 1 2.62 2.37 2.62.893796.050076 1.73725-.416351 2.17-1.2v1.09h1.09v-6.81h-1.09v4.14c.020117.503611-.171833.992586-.529172 1.348025-.35734.355439-.847332.544777-1.350828.521975-1.07 0-1.58-.53-1.58-1.74z"/><path d="m325.51 113.72v-4.1h1.59v-.92h-1.59v-1.56h-1.09v1.56h-1v.92h1v4.2c-.049046.500674.131602.996579.491192 1.348394.359591.351816.859326.521583 1.358808.461606.313375.008359.62551-.042533.92-.15v-.91c-.265143.099409-.546919.146938-.83.14-.55 0-.85-.32-.85-.99z"/><path d="m329.18 108.7h1.08v6.84h-1.08z"/><path d="m329.7 105.84c-.397645 0-.72.322355-.72.72s.322355.72.72.72.72-.322355.72-.72c-.00538-.395395-.324605-.71462-.72-.72z"/><path d="m335.66 108.58c-.919523-.018258-1.804949.348042-2.442821 1.010594-.637872.662551-.970313 1.561238-.917179 2.479406v.11c0 1.855677 1.504323 3.36 3.36 3.36s3.36-1.504323 3.36-3.36v-.1c.056037-.919847-.275111-1.821221-.913315-2.486017s-1.525318-1.032444-2.446685-1.013983zm2.23 3.6c.086043.645151-.108982 1.296199-.535544 1.787797-.426561.491598-1.043618.776446-1.694456.782203-1.39 0-2.24-1-2.24-2.57v-.11c0-1.57.87-2.59 2.24-2.59s2.23 1 2.23 2.61z"/><path d="m344.31 108.58c-.903771-.059478-1.760704.40794-2.2 1.2v-1.08h-1.11v6.84h1.09v-4.15c-.020794-.509111.175159-1.003182.539248-1.359646.364088-.356463.862195-.541917 1.370752-.510354 1.09 0 1.6.54 1.6 1.74v4.28h1.09v-4.2c.02-1.99-.97-2.76-2.38-2.76z"/><path d="m359 115.54v-10.11h-1.08v4.37c-.461059-.792234-1.324352-1.262421-2.24-1.22-.909904.01237-1.772945.405646-2.379276 1.084204-.606331.678559-.900407 1.580238-.810724 2.485796v.11c-.098097.873017.185011 1.745936.776818 2.395201.591808.649265 1.434836 1.011815 2.313182.994799.94389-.021953 1.817545-.503583 2.34-1.29v1.18zm-3.31-.79c-1.15 0-2.07-.82-2.07-2.55v-.1c0-1.66.81-2.62 2.17-2.62s2.17.83 2.17 2.58v.1c-.05 1.76-1.05 2.59-2.32 2.59z"/><path d="m364.16 108.58c-.903222.001939-1.764103.383143-2.372623 1.050614-.608521.667471-.908725 1.559833-.827377 2.459386v.1c-.071505.909645.24749 1.806736.877243 2.467023.629753.660286 1.510748 1.021366 2.422757.992977 1.55 0 2.68-.72 2.92-2.09h-1.09c-.14.8-.75 1.19-1.81 1.19-1.4 0-2.15-.86-2.2-2.42h5.15v-.33c0-2.46-1.49-3.42-3.07-3.42zm-2 2.88c.02636-1.093465.906535-1.97364 2-2 1.12 0 1.86.57 2 2z"/><path d="m371.5 111.55c-1.25-.22-1.59-.47-1.59-1.09s.51-1 1.29-1c.335147-.054189.67792.030274.949519.233974.2716.2037.448662.509112.490481.846026h1c-.04413-.600293-.334494-1.155627-.802284-1.534405-.46779-.378777-1.071372-.547286-1.667716-.465595-1.167017-.104271-2.199133.753591-2.31 1.92 0 1.19.6 1.69 2.38 2 1.06.19 1.59.43 1.59 1.15s-.45 1.08-1.49 1.08-1.53-.51-1.6-1.32h-1.06c.06 1.4 1 2.22 2.68 2.22s2.5-.83 2.5-2.08c.04-1.39-.95-1.7-2.36-1.96z"/><path d="m384.29 113.57c0-1.45-1-1.76-2.4-2-1.26-.22-1.6-.47-1.6-1.09s.51-1 1.3-1 1.28.33 1.43 1.08h1.05c-.04413-.600293-.334494-1.155627-.802284-1.534405-.46779-.378777-1.071372-.547286-1.667716-.465595-1.168991-.104464-2.204003.752097-2.32 1.92 0 1.19.61 1.69 2.38 2 1.06.19 1.6.43 1.6 1.15s-.46 1.08-1.49 1.08-1.53-.51-1.61-1.32h-1.06c.07 1.4 1 2.22 2.68 2.22s2.51-.79 2.51-2.04z"/><path d="m390.1 114.67v.87h1.09v-4.54c.080996-.680457-.158244-1.359993-.647666-1.839627-.489422-.479633-1.173652-.705098-1.852334-.610373-1.32 0-2.56.58-2.7 2.13h1.08c.11-.83.63-1.23 1.57-1.23s1.46.46 1.46 1.55v.49h-1c-1.75 0-3.42.54-3.42 2.12 0 1.4 1 2 2.27 2 .829559.070679 1.638575-.283031 2.15-.94zm-3.32-1c0-1 1-1.35 2.38-1.35h.94v.85c0 1.06-.87 1.65-2 1.65-.98-.03-1.32-.47-1.32-1.18z"/><path d="m398.24 111.26v4.27h1.09v-4.19c0-2-1-2.76-2.41-2.76-.900265-.055508-1.752286.411352-2.19 1.2v-1.08h-1.09v6.83h1.09v-4.14c-.020794-.509111.175159-1.003182.539248-1.359646.364088-.356463.862195-.541917 1.370752-.510354 1.09 0 1.6.54 1.6 1.74z"/><path d="m406.59 113.08c-.043142.486924-.278269.936668-.653492 1.249979-.375223.313312-.859698.464436-1.346508.420021-1.32 0-2.24-.89-2.24-2.56v-.1c-.081689-.643376.109651-1.291575.527634-1.787454.417983-.49588 1.024446-.794166 1.672366-.822546.932035-.105778 1.775302.55902 1.89 1.49h1.07c-.072515-.718364-.431815-1.37708-.99653-1.82697-.564716-.44989-1.287069-.652891-2.00347-.56303-.914449-.001499-1.789026.374245-2.417409 1.03859s-.954925 1.558459-.902591 2.47141v.1c-.05977.915384.270089 1.813396.908181 2.47244s1.524982 1.017735 2.441819.98756c1.529593.093007 2.857137-1.044256 3-2.57z"/><path d="m409.79 113.82c-.048495.498725.130882.99267.488097 1.344061.357216.351392.854042.522625 1.351903.465939.316625.008191.632006-.042677.93-.15v-.91c-.268844.098547-.553726.146028-.84.14-.55 0-.85-.32-.85-1v-4.11h1.6v-.91h-1.6v-1.56h-1.08v1.56h-1v.91h1z"/><path d="m415.06 107.27c.19003.002677.373201-.070943.508523-.204385.135321-.133442.211496-.315566.211477-.505615.032654-.275635-.096038-.545495-.330775-.693615s-.533713-.14812-.76845 0-.363429.41798-.330775.693615c0 .392122.317878.71.71.71z"/><path d="m414.54 108.7h1.08v6.84h-1.08z"/><path d="m424.38 112.06c0-1.855677-1.504323-3.36-3.36-3.36s-3.36 1.504323-3.36 3.36v.11c0 1.855677 1.504323 3.36 3.36 3.36s3.36-1.504323 3.36-3.36zm-1.12.12c.086252.646869-.110066 1.299569-.538853 1.791525-.428786.491956-1.048559.775575-1.701147.778475-1.38 0-2.23-1-2.23-2.57v-.11c0-1.57.86-2.59 2.23-2.59s2.24 1 2.24 2.61z"/><path d="m432.08 115.54v-4.2c0-2-1-2.76-2.41-2.76-.900265-.055508-1.752286.411352-2.19 1.2v-1.08h-1.09v6.84h1.09v-4.15c-.020551-.507267.17407-.999624.535901-1.355743.361831-.356118.857223-.542878 1.364099-.514257 1.1 0 1.61.54 1.61 1.74v4.28z"/><path d="m436.75 111.55c-1.26-.22-1.6-.47-1.6-1.09s.51-1 1.3-1c.335147-.054189.67792.030274.949519.233974.2716.2037.448662.509112.490481.846026h1c-.04413-.600293-.334494-1.155627-.802284-1.534405-.46779-.378777-1.071372-.547286-1.667716-.465595-1.167017-.104271-2.199133.753591-2.31 1.92 0 1.19.6 1.69 2.38 2 1.06.19 1.59.43 1.59 1.15s-.46 1.08-1.49 1.08-1.53-.51-1.61-1.32h-1c.06 1.4 1 2.22 2.67 2.22s2.51-.83 2.51-2.08c-.01-1.39-1-1.7-2.41-1.96z"/><path d="m451.42 112.12v-.12c.093956-.880332-.191736-1.758981-.785467-2.415712-.59373-.656731-1.439216-1.029288-2.324533-1.024338-.933581.011774-1.799898.488061-2.31 1.27005v-1.13h-1.09v9.21h1.09v-3.5c.488482.801313 1.372214 1.275697 2.31 1.24 1.88 0 3.11-1.43 3.11-3.53zm-5.46.06v-.11c0-1.75 1-2.59 2.23-2.59s2.11.87 2.11 2.59v.11c0 1.66-.73 2.57-2.09 2.57s-2.21-.82-2.21-2.57z"/><path d="m459.14 113.56h-1.08c-.15.8-.76 1.19-1.82 1.19-1.4 0-2.14-.86-2.2-2.42h5.15v-.33c0-2.44-1.49-3.4-3.07-3.4-.903222.001939-1.764103.383143-2.372623 1.050614-.608521.667471-.908725 1.559833-.827377 2.459386v.1c-.07174.911437.24857 1.81022.880568 2.470859.631998.660638 1.515712 1.020441 2.429432.989141 1.37428.17267 2.646948-.750123 2.91-2.11zm-3-4.08c1.13 0 1.86.57 2 2h-4c.025871-1.085963.894352-1.963216 1.98-2z"/><path d="m457.81 105.6h-1.36l-.81 1.93h.81z"/><path d="m466.86 115.54v-4.2c0-2-1-2.76-2.4-2.76-.903771-.059478-1.760704.40794-2.2 1.2v-1.08h-1.09v6.84h1.09v-4.15c-.020794-.509111.175159-1.003182.539248-1.359646.364088-.356463.862195-.541917 1.370752-.510354 1.1 0 1.61.54 1.61 1.74v4.28z"/><path d="m471.74 108.58c-1.32 0-2.56.58-2.7 2.13h1.08c.11-.83.63-1.23 1.57-1.23s1.46.46 1.46 1.55v.49h-1c-1.75 0-3.42.54-3.42 2.12 0 1.4 1 2 2.28 2 .830624.048269 1.628978-.328313 2.12-1v.87h1.09v-4.51c.069671-.6716-.171497-1.338202-.654748-1.809762s-1.15556-.696333-1.825252-.610238zm1.41 4.56c0 1.06-.87 1.65-2 1.65-.95 0-1.3-.44-1.3-1.15 0-1 1-1.35 2.38-1.35h.94z"/><path d="m476.72 105.43h1.1v10.1h-1.1z"/><path d="m483.06 108.579999c-.904963-.000866-1.768519.379119-2.37925 1.046927-.61073.667808-.912253 1.561788-.83075 2.463074v.1c-.068498.910638.252893 1.807531.884168 2.467414s1.513054 1.020683 2.425832.992586c1.370211.174497 2.6433-.736721 2.92-2.09h-1.08c-.14.8-.76 1.19-1.82 1.19-1.4 0-2.14-.86-2.19-2.42h5.15v-.33c-.01-2.46-1.5-3.420001-3.08-3.420001zm-2 2.880001c0-1.104569.895431-2 2-2 1.12 0 1.85.57 2 2z"/><path d="m490.4 111.55c-1.26-.22-1.6-.47-1.6-1.09s.51-1 1.3-1c.335147-.054189.67792.030274.949519.233974.2716.2037.448662.509112.490481.846026h1c-.04413-.600293-.334494-1.155627-.802284-1.534405-.46779-.378777-1.071372-.547286-1.667716-.465595-1.167017-.104271-2.199133.753591-2.31 1.92 0 1.19.6 1.69 2.38 2 1.05.19 1.59.43 1.59 1.15s-.46 1.08-1.49 1.08-1.53-.51-1.61-1.32h-1.06c.07 1.4 1 2.22 2.68 2.22s2.51-.83 2.51-2.08c.04-1.39-.95-1.7-2.36-1.96z"/><path d="m5.22 133.39c-2 0-3.21-1.44-3.21-3.82v-.1c0-2.36 1.29-3.86 3.23-3.86.64150003-.084292 1.28937295.099633 1.79089238.508419.50151944.408786.81231006 1.006261.85910762 1.651581h1.11c-.19-2-1.84-3.06-3.79-3.06-1.22735408.013367-2.39468383.533089-3.22588526 1.43624-.83120143.90315-1.25245193 2.109516-1.16411474 3.33376v.1c0 2.88 1.66 4.73 4.37 4.73 1.96564163.19168 3.71520718-1.244664 3.91-3.21h-1.05c-.16240999 1.406583-1.42048429 2.4246-2.83 2.29z"/><path d="m13.77 127.239997c-.9042278-.001138-1.767.379146-2.3761969 1.047359s-.9083112 1.562373-.8238031 2.462644v.1c-.0747695.910441.2431329 1.809434.873614 2.470484s1.513427 1.021128 2.426386.989516c1.54 0 2.68-.71 2.92-2.09h-1.09c-.14.8-.76 1.19-1.82 1.19-1.39 0-2.14-.86-2.19-2.42h5.15v-.35c0-2.44-1.49-3.400003-3.07-3.400003zm-2 2.880003c.0263599-1.093465.9065352-1.97364 2-2 1.12 0 1.85.57 2 2z"/><path d="m22.1 127.24c-.9042914-.050157-1.7581028.41944-2.2 1.21v-1.09h-1.08v6.84h1.08v-4.15c-.0178924-.507406.1793377-.998771.5430807-1.352992s.8601659-.538351 1.3669193-.507008c1.1 0 1.61.53 1.61 1.73v4.28h1.08v-4.2c0-2-.99-2.76-2.4-2.76z"/><path d="m28.28 132.38v-4.1h1.59v-.92h-1.59v-1.55h-1.09v1.55h-1v.92h1v4.2c-.0469791.492951.1285671.981137.4787153 1.331285s.8383339.525694 1.3312847.478715c.3133748.008359.6255099-.042533.92-.15v-.91c-.2651427.099409-.5469192.146938-.83.14-.51 0-.81-.32-.81-.99z"/><path d="m33 128.59v-1.23h-1.08v6.84h1.08v-3.75c0-1.69.87-2.12 2.24-2.19v-1c-.9438984-.03832-1.8217999.482934-2.24 1.33z"/><path d="m39.81 127.24c-.9178005-.015438-1.8005592.352099-2.4362157 1.01432-.6356564.662221-.9667647 1.55928-.9137843 2.47568v.11c-.0678506 1.242333.5563556 2.420462 1.6223592 3.062046 1.0660035.641585 2.3992781.641585 3.4652816 0 1.0660036-.641584 1.6902098-1.819713 1.6223592-3.062046v-.11c.0562152-.918967-.2752047-1.819443-.9137567-2.482701s-1.5258055-1.028606-2.4462433-1.007299zm2.24 3.6c.0862523.646869-.110066 1.299569-.5388527 1.791525s-1.0485597.775575-1.7011473.778475c-1.38 0-2.23-1-2.23-2.57v-.11c0-1.56.86-2.59 2.23-2.59s2.24 1 2.24 2.61z"/><path d="m51.19 130.21c-1.25-.22-1.59-.47-1.59-1.08s.51-1 1.29-1c.3351471-.054189.6779196.030274.9495195.233974.2715998.2037.4486612.509112.4904805.846026h1c-.04413-.600293-.3344937-1.155627-.8022836-1.534405-.4677899-.378777-1.0713723-.547286-1.6677164-.465595-1.1705755-.104078-2.204271.759572-2.31 1.93 0 1.18.6 1.68 2.38 2 1.06.19 1.59.43 1.59 1.15s-.45 1.08-1.49 1.08-1.53-.51-1.6-1.32h-1.02c.06 1.4 1 2.22 2.68 2.22s2.51-.83 2.51-2.07c0-1.41-1-1.73-2.41-1.99z"/><path d="m57.93 133.1-2.02-5.74h-1.18l2.48 6.84h1.39l2.45-6.84h-1.12z"/><path d="m63.35 124.5c-.397645 0-.72.322355-.72.72s.322355.72.72.72.72-.322355.72-.72c-.0053803-.395395-.324605-.71462-.72-.72z"/><path d="m62.83 127.36h1.08v6.84h-1.08z"/><path d="m66.03 128.28h3.65l-4.04 5.76v.16h5.66v-.96h-3.9l3.95-5.68v-.2h-5.32z"/><path d="m72.8 128.28h3.64l-4.04 5.76v.16h5.66v-.96h-3.89l3.95-5.68v-.2h-5.32z"/><path d="m82.49 127.24c-.903222.001939-1.7641032.383143-2.3726234 1.050614-.6085201.667471-.908725 1.559833-.8273766 2.459386v.1c-.0747695.910441.2431329 1.809434.873614 2.470484s1.513427 1.021128 2.426386.989516c1.55 0 2.68-.71 2.92-2.09h-1.09c-.14.8-.76 1.19-1.81 1.19-1.4 0-2.15-.86-2.2-2.42h5.15v-.35c0-2.44-1.49-3.4-3.07-3.4zm-2 2.88c.0263599-1.093465.9065352-1.97364 2-2 1.12 0 1.85.57 2 2z"/><path d="m88.63 128.59v-1.23h-1.09v6.84h1.09v-3.75c0-1.69.87-2.12 2.25-2.19v-1c-.9474544-.042358-1.8303167.479512-2.25 1.33z"/><path d="m95.44 127.24c-.9195225-.018258-1.8049487.348042-2.4428206 1.010594-.6378719.662551-.9703133 1.561238-.9171794 2.479406v.11c-.0678506 1.242333.5563556 2.420462 1.6223592 3.062046 1.0660035.641585 2.3992781.641585 3.4652816 0 1.0660036-.641584 1.6902098-1.819713 1.6223592-3.062046v-.11c.056046-.917193-.2740439-1.816029-.9103746-2.478953-.6363307-.662923-1.5209071-1.029516-2.4396254-1.011047zm2.23 3.6c.0860426.645151-.1089822 1.296199-.5355436 1.787797-.4265615.491598-1.0436186.776446-1.6944564.782203-1.39 0-2.24-1-2.24-2.57v-.11c0-1.56.86-2.59 2.24-2.59s2.23 1 2.23 2.61z"/><path d="m109.5 128.46c-.454412-.794024-1.316276-1.265537-2.23-1.22-.909904.01237-1.772945.405646-2.379276 1.084204-.606331.678559-.900407 1.580238-.810724 2.485796v.11c0 2.13 1.29 3.4 3.08 3.4.946698-.02077 1.822223-.507172 2.34-1.3v1.18h1.09v-10.11h-1.09zm0 2.37c0 1.75-1 2.58-2.26 2.58s-2.07-.82-2.07-2.55v-.1c0-1.66.8-2.62 2.16-2.62s2.17.83 2.17 2.58z"/><path d="m113.13 127.36h1.08v6.84h-1.08z"/><path d="m113.66 124.5c-.292089-.004057-.55768.168769-.67228.437468s-.055493.58001.149615.788007c.205109.207997.515562.271452.785837.160621.270276-.110831.4468-.373979.446828-.666096.000038-.393772-.316266-.714531-.71-.72z"/><path d="m123.4 133.41c-1.32 0-2.23-.89-2.23-2.56v-.1c0-1.61 1-2.61 2.19-2.61.937544-.105739 1.785265.563514 1.9 1.5h1.07c-.072663-.719044-.431601-1.378605-.995939-1.830076-.564339-.451471-1.286604-.656872-2.004061-.569924-.914449-.001499-1.789026.374245-2.417409 1.03859s-.954925 1.558459-.902591 2.47141v.1c-.059552.916246.270042 1.815124.907771 2.475697.637728.660572 1.524455 1.021585 2.442229.994303 1.529545.082124 2.852242-1.055395 3-2.58h-1c-.090106.997241-.961102 1.739365-1.96 1.67z"/><path d="m131.17 127.24c-.9178-.015438-1.800559.352099-2.436216 1.01432-.635656.662221-.966764 1.55928-.913784 2.47568v.11c-.067851 1.242333.556356 2.420462 1.622359 3.062046 1.066004.641585 2.399278.641585 3.465282 0 1.066003-.641584 1.69021-1.819713 1.622359-3.062046v-.11c.056215-.918967-.275205-1.819443-.913757-2.482701s-1.525805-1.028606-2.446243-1.007299zm2.24 3.6c.086252.646869-.110066 1.299569-.538853 1.791525-.428786.491956-1.048559.775575-1.701147.778475-1.38 0-2.23-1-2.23-2.57v-.11c0-1.56.86-2.59 2.23-2.59s2.24 1 2.24 2.61z"/><path d="m144 127.24c-.953521-.025568-1.847213.463288-2.34 1.28-.313849-.819077-1.124776-1.338071-2-1.28-.832861-.014143-1.604174.437075-2 1.17v-1h-1.09v6.84h1.09v-4.25c-.022667-.485782.158996-.958882.500964-1.304651.341969-.345768.813033-.532647 1.299036-.515349.94 0 1.45.49 1.45 1.69v4.32h1.09v-4.19c-.022667-.485782.158996-.958882.500964-1.304651.341969-.345768.813033-.532647 1.299036-.515349.94 0 1.45.49 1.45 1.69v4.32h1.09v-4.19c-.03-2-1.11-2.76-2.34-2.76z"/><path d="m152.15 127.23995c-.933581.011774-1.799898.488061-2.31 1.27005v-1.15h-1.09v9.21h1.09v-3.5c.488482.801313 1.372214 1.275697 2.31 1.24 1.89 0 3.11-1.43 3.11-3.52v-.11c.093956-.880332-.191736-1.758981-.785467-2.415712-.59373-.656731-1.439216-1.029288-2.324533-1.024338zm2 3.60005c0 1.66-.73 2.57-2.09 2.57s-2.25-.82-2.25-2.57v-.11c0-1.75 1-2.59 2.24-2.59s2.1.87 2.1 2.59z"/><path d="m160 127.24c-.903222.001939-1.764103.383143-2.372623 1.050614-.608521.667471-.908725 1.559833-.827377 2.459386v.1c-.07174.911437.24857 1.81022.880568 2.470859.631998.660638 1.515712 1.020441 2.429432.989141 1.54 0 2.68-.71 2.91-2.09h-1.12c-.15.8-.76 1.19-1.82 1.19-1.4 0-2.14-.86-2.19-2.42h5.11v-.35c0-2.44-1.45-3.4-3-3.4zm-2 2.88c0-1.104569.895431-2 2-2 1.13 0 1.86.57 2 2z"/><path d="m166.34 132.38v-4.1h1.59v-.92h-1.59v-1.55h-1.09v1.55h-1v.92h1v4.2c-.049046.500674.131602.996579.491192 1.348394.359591.351816.859326.521583 1.358808.461606.313375.008359.62551-.042533.92-.15v-.91c-.265143.099409-.546919.146938-.83.14-.55 0-.85-.32-.85-.99z"/><path d="m172.67 127.24c-.903222.001939-1.764103.383143-2.372623 1.050614-.608521.667471-.908725 1.559833-.827377 2.459386v.1c-.07174.911437.24857 1.81022.880568 2.470859.631998.660638 1.515712 1.020441 2.429432.989141 1.54 0 2.68-.71 2.91-2.09h-1.08c-.15.8-.76 1.19-1.82 1.19-1.4 0-2.14-.86-2.19-2.42h5.14v-.35c0-2.44-1.49-3.4-3.07-3.4zm-2 2.88c.031349-1.091321.908679-1.968651 2-2 1.13 0 1.86.57 2 2z"/><path d="m181 127.24c-.904844-.052591-1.759863.417669-2.2 1.21v-1.09h-1.08v6.84h1.08v-4.15c-.017892-.507406.179338-.998771.543081-1.352992s.860166-.538351 1.366919-.507008c1.1 0 1.61.53 1.61 1.73v4.28h1.08v-4.2c.01-2-.98-2.76-2.4-2.76z"/><path d="m185.44 128.28h3.64l-4.04 5.76v.16h5.66v-.96h-3.89l3.94-5.68v-.2h-5.31z"/><path d="m195.13 127.24c-.903222.001939-1.764103.383143-2.372623 1.050614-.608521.667471-.908725 1.559833-.827377 2.459386v.1c-.07477.910441.243133 1.809434.873614 2.470484s1.513427 1.021128 2.426386.989516c1.55 0 2.68-.71 2.92-2.09h-1.09c-.14.8-.76 1.19-1.81 1.19-1.4 0-2.15-.86-2.2-2.42h5.15v-.35c0-2.44-1.49-3.4-3.07-3.4zm-2 2.88c.02636-1.093465.906535-1.97364 2-2 1.12 0 1.85.57 2 2z"/><path d="m204.52 124.5c-.397645 0-.72.322355-.72.72s.322355.72.72.72.72-.322355.72-.72c-.00538-.395395-.324605-.71462-.72-.72z"/><path d="m204 127.36h1.08v6.84h-1.08z"/><path d="m210.91 127.24c-.904844-.052591-1.759863.417669-2.2 1.21v-1.09h-1.08v6.84h1.08v-4.15c-.017892-.507406.179338-.998771.543081-1.352992s.860166-.538351 1.366919-.507008c1.1 0 1.61.53 1.61 1.73v4.28h1.08v-4.2c0-2-.99-2.76-2.4-2.76z"/><path d="m227 127.24c-.953013-.023468-1.845719.464849-2.34 1.28-.313849-.819077-1.124776-1.338071-2-1.28-.832861-.014143-1.604174.437075-2 1.17v-1h-1.09v6.84h1.09v-4.25c-.019623-.484944.163028-.956259.504314-1.301337.341287-.345079.810555-.532927 1.295686-.518663.95 0 1.45.49 1.45 1.69v4.32h1.09v-4.19c-.022667-.485782.158996-.958882.500964-1.304651.341969-.345768.813033-.532647 1.299036-.515349.94 0 1.45.49 1.45 1.69v4.32h1.09v-4.19c-.02-2-1.09-2.76-2.34-2.76z"/><path d="m234.2 127.24c-.645226-.087319-1.298239.091263-1.809234.494779-.510994.403516-.836111.997332-.900766 1.645221h1.09c.1-.84.63-1.24 1.57-1.24s1.46.46 1.46 1.55v.49h-1c-1.75 0-3.42.54-3.42 2.12 0 1.4 1 2 2.27 2 .833722.049866 1.635795-.326695 2.13-1v.87h1.09v-4.51c.069671-.6716-.171497-1.338202-.654748-1.809762s-1.15556-.696333-1.825252-.610238zm1.41 4.57c0 1.05-.88 1.64-2 1.64-.95 0-1.29-.44-1.29-1.15 0-1 1-1.35 2.38-1.35h.94z"/><path d="m240.47 132.38v-4.1h1.59v-.92h-1.59v-1.55h-1.08v1.55h-1v.92h1v4.2c-.048495.498725.130882.99267.488097 1.344061.357216.351392.854042.522625 1.351903.465939.313375.008359.62551-.042533.92-.15v-.91c-.265143.099409-.546919.146938-.83.14-.55 0-.85-.32-.85-.99z"/><path d="m246.8 127.24c-.903222.001939-1.764103.383143-2.372623 1.050614-.608521.667471-.908725 1.559833-.827377 2.459386v.1c-.07174.911437.24857 1.81022.880568 2.470859.631998.660638 1.515712 1.020441 2.429432.989141 1.54 0 2.68-.71 2.91-2.09h-1.08c-.15.8-.76 1.19-1.82 1.19-1.4 0-2.14-.86-2.19-2.42h5.15v-.35c0-2.44-1.49-3.4-3.08-3.4zm-2 2.88c0-1.104569.895431-2 2-2 1.13 0 1.86.57 2 2z"/><path d="m252.94 128.59v-1.23h-1.08v6.84h1.08v-3.75c0-1.69.88-2.12 2.25-2.19v-1c-.947454-.042358-1.830317.479512-2.25 1.33z"/><path d="m257.12 127.36h1.08v6.84h-1.08z"/><path d="m257.65 124.5c-.292089-.004057-.55768.168769-.67228.437468s-.055493.58001.149615.788007c.205109.207997.515562.271452.785837.160621.270276-.110831.4468-.373979.446828-.666096.000038-.393772-.316266-.714531-.71-.72z"/><path d="m263.18 127.24c-1.32 0-2.56.58-2.7 2.14h1.08c.11-.84.63-1.24 1.57-1.24s1.47.46 1.47 1.55v.49h-1c-1.76 0-3.43.54-3.43 2.12 0 1.4 1 2 2.28 2 .833363.048002 1.63459-.328161 2.13-1v.87h1.08v-4.51c.069671-.6716-.171497-1.338202-.654748-1.809762s-1.15556-.696333-1.825252-.610238zm1.42 4.57c0 1.05-.88 1.64-2 1.64-.95 0-1.29-.44-1.29-1.15 0-1 1-1.35 2.38-1.35h.94z"/><path d="m276.84 128.46c-.459414-.793924-1.323825-1.264719-2.24-1.22-.909904.01237-1.772945.405646-2.379276 1.084204-.606331.678559-.900407 1.580238-.810724 2.485796v.11c0 2.13 1.3 3.4 3.09 3.4.946231-.022492 1.821008-.508479 2.34-1.3v1.18h1.08v-10.11h-1.08zm0 2.37c0 1.75-1 2.58-2.26 2.58s-2.08-.82-2.08-2.55v-.1c0-1.66.81-2.62 2.17-2.62s2.17.83 2.17 2.58z"/><path d="m280.33 128.05h.79l.19-3.2h-1.17z"/><path d="m285.64 127.24c-.903222.001939-1.764103.383143-2.372623 1.050614-.608521.667471-.908725 1.559833-.827377 2.459386v.1c-.07174.911437.24857 1.81022.880568 2.470859.631998.660638 1.515712 1.020441 2.429432.989141 1.54 0 2.67-.71 2.91-2.09h-1.09c-.14.8-.75 1.19-1.81 1.19-1.4 0-2.15-.86-2.2-2.42h5.15v-.35c0-2.44-1.49-3.4-3.07-3.4zm-2 2.88c.02636-1.093465.906535-1.97364 2-2 1.13 0 1.86.57 2 2z"/><path d="m293 130.21c-1.25-.22-1.59-.47-1.59-1.08s.51-1 1.29-1c.335147-.054189.67792.030274.949519.233974.2716.2037.448662.509112.490481.846026h1c-.04413-.600293-.334494-1.155627-.802284-1.534405-.46779-.378777-1.071372-.547286-1.667716-.465595-1.170576-.104078-2.204271.759572-2.31 1.93 0 1.18.6 1.68 2.38 2 1.06.19 1.59.43 1.59 1.15s-.45 1.08-1.49 1.08-1.53-.51-1.6-1.32h-1.04c.06 1.4 1 2.22 2.68 2.22s2.51-.83 2.51-2.07c0-1.41-1-1.73-2.39-1.99z"/><path d="m300.05 127.24c-.903222.001939-1.764103.383143-2.372623 1.050614-.608521.667471-.908725 1.559833-.827377 2.459386v.1c-.07477.910441.243133 1.809434.873614 2.470484s1.513427 1.021128 2.426386.989516c1.54 0 2.68-.71 2.92-2.09h-1.07c-.14.8-.76 1.19-1.81 1.19-1.4 0-2.15-.86-2.2-2.42h5.15v-.35c-.02-2.44-1.51-3.4-3.09-3.4zm-2 2.88c.02636-1.093465.906535-1.97364 2-2 1.12 0 1.85.57 2 2z"/><path d="m308 133.41c-1.32 0-2.23-.89-2.23-2.56v-.1c0-1.61.95-2.61 2.19-2.61.937544-.105739 1.785265.563514 1.9 1.5h1.07c-.072663-.719044-.431601-1.378605-.995939-1.830076-.564339-.451471-1.286604-.656872-2.004061-.569924-.914449-.001499-1.789026.374245-2.417409 1.03859s-.954925 1.558459-.902591 2.47141v.1c-.059552.916246.270042 1.815124.907771 2.475697.637728.660572 1.524455 1.021585 2.442229.994303 1.529545.082124 2.852242-1.055395 3-2.58h-1c-.090106.997241-.961102 1.739365-1.96 1.67z"/><path d="m317.36 131.51c.01725.501907-.175965.988199-.53297 1.341407-.357005.353207-.845336.541209-1.34703.518593-1.08 0-1.59-.53-1.59-1.73v-4.28h-1.08v4.33c0 1.88 1 2.62 2.38 2.62.892683.045233 1.73374-.419868 2.17-1.2v1.09h1.08v-6.84h-1.08z"/><path d="m320.53 128.28h3.65l-4.04 5.76v.16h5.66v-.96h-3.9l3.95-5.68v-.2h-5.32z"/><path d="m328.14 124.5c-.397645 0-.72.322355-.72.72s.322355.72.72.72.72-.322355.72-.72c-.00538-.395395-.324605-.71462-.72-.72z"/><path d="m327.62 127.36h1.08v6.84h-1.08z"/><path d="m334.1 127.24c-.918611-.015245-1.802234.351997-2.439435 1.013853-.637202.661856-.970653 1.558776-.920565 2.476147v.11c0 1.855677 1.504323 3.36 3.36 3.36s3.36-1.504323 3.36-3.36v-.11c.056215-.918967-.275205-1.819443-.913757-2.482701s-1.525805-1.028606-2.446243-1.007299zm2.24 3.6c.086252.646869-.110066 1.299569-.538853 1.791525-.428786.491956-1.048559.775575-1.701147.778475-1.38 0-2.23-1-2.23-2.57v-.11c0-1.56.86-2.59 2.23-2.59s2.24 1 2.24 2.61z"/><path d="m342.75 127.24c-.902446-.053572-1.755025.417488-2.19 1.21v-1.09h-1.09v6.84h1.09v-4.15c-.020807-.506462.174089-.997999.536306-1.35259.362217-.354592.85779-.538987 1.363694-.50741 1.1 0 1.61.53 1.61 1.73v4.28h1.08v-4.2c0-2-.99-2.76-2.4-2.76z"/><path d="m350.3 127.24c-.903222.001939-1.764103.383143-2.372623 1.050614-.608521.667471-.908725 1.559833-.827377 2.459386v.1c-.07174.911437.24857 1.81022.880568 2.470859.631998.660638 1.515712 1.020441 2.429432.989141 1.54 0 2.67-.71 2.91-2.09h-1.09c-.14.8-.75 1.19-1.81 1.19-1.4 0-2.15-.86-2.2-2.42h5.15v-.35c0-2.44-1.49-3.4-3.07-3.4zm-2 2.88c.02636-1.093465.906535-1.97364 2-2 1.13 0 1.86.57 2 2z"/><path d="m364.06 128.46c-.461059-.792234-1.324352-1.262421-2.24-1.22-.909904.01237-1.772945.405646-2.379276 1.084204-.606331.678559-.900407 1.580238-.810724 2.485796v.11c0 2.13 1.3 3.4 3.09 3.4.945304-.02589 1.818612-.511061 2.34-1.3v1.18h1.08v-10.11h-1.08zm0 2.37c0 1.75-1 2.58-2.26 2.58s-2.08-.82-2.08-2.55v-.1c0-1.66.81-2.62 2.17-2.62s2.17.83 2.17 2.58z"/><path d="m367.69 127.36h1.08v6.84h-1.08z"/><path d="m368.21 124.5c-.397645 0-.72.322355-.72.72s.322355.72.72.72.72-.322355.72-.72-.322355-.72-.72-.72z"/><path d="m377.33 130.21c-1.26-.22-1.6-.47-1.6-1.08s.51-1 1.3-1 1.28.33 1.43 1.08h1.05c-.04413-.600293-.334494-1.155627-.802284-1.534405-.46779-.378777-1.071372-.547286-1.667716-.465595-1.172531-.104248-2.20911.758078-2.32 1.93 0 1.18.61 1.68 2.38 2 1.06.19 1.6.43 1.6 1.15s-.46 1.08-1.49 1.08-1.53-.51-1.61-1.32h-1.06c.07 1.4 1 2.22 2.68 2.22s2.51-.83 2.51-2.07c0-1.41-.99-1.73-2.4-1.99z"/><path d="m384.13 127.24c-1.32 0-2.56.58-2.7 2.14h1.08c.11-.84.63-1.24 1.57-1.24s1.46.46 1.46 1.55v.49h-1c-1.75 0-3.42.54-3.42 2.12 0 1.4 1 2 2.27 2 .833722.049866 1.635795-.326695 2.13-1v.87h1.09v-4.51c.069671-.6716-.171497-1.338202-.654748-1.809762s-1.15556-.696333-1.825252-.610238zm1.41 4.57c0 1.05-.87 1.64-2 1.64-1 0-1.3-.44-1.3-1.15 0-1 1-1.35 2.38-1.35h.94z"/><path d="m392.36 127.24c-.902446-.053572-1.755025.417488-2.19 1.21v-1.09h-1.09v6.84h1.09v-4.15c-.021069-.508317.175158-1.001585.53964-1.356526.364482-.35494.862781-.538017 1.37036-.503474 1.09 0 1.6.53 1.6 1.73v4.28h1.09v-4.2c0-2-1-2.76-2.41-2.76z"/><path d="m396.79 128.28h3.65l-4.04 5.76v.16h5.66v-.96h-3.9l3.95-5.68v-.2h-5.32z"/><path d="m403.88 127.36h1.08v6.84h-1.08z"/><path d="m404.41 124.5c-.292089-.004057-.55768.168769-.67228.437468s-.055493.58001.149615.788007c.205109.207997.515562.271452.785837.160621.270276-.110831.4468-.373979.446828-.666096.000038-.393772-.316266-.714531-.71-.72z"/><path d="m410.36 127.24c-.918611-.015245-1.802234.351997-2.439435 1.013853-.637202.661856-.970653 1.558776-.920565 2.476147v.11c0 1.855677 1.504323 3.36 3.36 3.36s3.36-1.504323 3.36-3.36v-.11c.056215-.918967-.275205-1.819443-.913757-2.482701s-1.525805-1.028606-2.446243-1.007299zm2.24 3.6c.086252.646869-.110066 1.299569-.538853 1.791525-.428786.491956-1.048559.775575-1.701147.778475-1.38 0-2.23-1-2.23-2.57v-.11c0-1.56.86-2.59 2.23-2.59s2.24 1 2.24 2.61z"/><path d="m419 127.24c-.904291-.050157-1.758103.41944-2.2 1.21v-1.09h-1.08v6.84h1.08v-4.15c-.017892-.507406.179338-.998771.543081-1.352992s.860166-.538351 1.366919-.507008c1.1 0 1.61.53 1.61 1.73v4.28h1.08v-4.2c.01-2-.98-2.76-2.4-2.76z"/><path d="m424.42 124.5c-.397645 0-.72.322355-.72.72s.322355.72.72.72.72-.322355.72-.72c0-.190956-.075857-.374091-.210883-.509117s-.318161-.210883-.509117-.210883z"/><path d="m423.89 127.36h1.08v6.84h-1.08z"/><path d="m434.71 127.23995c-.933581.011774-1.799898.488061-2.31 1.27005v-1.15h-1.09v9.21h1.09v-3.5c.488482.801313 1.372214 1.275697 2.31 1.24 1.88 0 3.11-1.43 3.11-3.52v-.11c.093956-.880332-.191736-1.758981-.785467-2.415712-.59373-.656731-1.439216-1.029288-2.324533-1.024338zm2 3.60005c0 1.66-.73 2.57-2.09 2.57s-2.25-.82-2.25-2.57v-.11c0-1.75 1-2.59 2.23-2.59s2.11.87 2.11 2.59z"/><path d="m442.52 127.24c-.903222.001939-1.764103.383143-2.372623 1.050614-.608521.667471-.908725 1.559833-.827377 2.459386v.1c-.07174.911437.24857 1.81022.880568 2.470859.631998.660638 1.515712 1.020441 2.429432.989141 1.54 0 2.68-.71 2.91-2.09h-1.08c-.15.8-.76 1.19-1.82 1.19-1.4 0-2.14-.86-2.19-2.42h5.14v-.35c0-2.44-1.49-3.4-3.07-3.4zm-2 2.88c.031349-1.091321.908679-1.968651 2-2 1.13 0 1.86.57 2 2z"/><path d="m450.86 127.24c-.904844-.052591-1.759863.417669-2.2 1.21v-1.09h-1.08v6.84h1.08v-4.15c-.021069-.508317.175158-1.001585.53964-1.356526.364482-.35494.862781-.538017 1.37036-.503474 1.1 0 1.61.53 1.61 1.73v4.28h1.08v-4.2c0-2-.99-2.76-2.4-2.76z"/><path d="m458.14 127.24c-1.32 0-2.56.58-2.7 2.14h1.08c.11-.84.63-1.24 1.57-1.24s1.47.46 1.47 1.55v.49h-1c-1.76 0-3.43.54-3.43 2.12 0 1.4 1 2 2.28 2 .833363.048002 1.63459-.328161 2.13-1v.87h1.08v-4.51c.069671-.6716-.171497-1.338202-.654748-1.809762s-1.15556-.696333-1.825252-.610238zm1.42 4.57c0 1.05-.88 1.64-2 1.64-.95 0-1.29-.44-1.29-1.15 0-1 1-1.35 2.38-1.35h.94z"/><path d="m463.12 124.09h1.1v10.1h-1.1z"/><path d="m467.31 124.5c-.397645 0-.72.322355-.72.72s.322355.72.72.72.72-.322355.72-.72c-.00538-.395395-.324605-.71462-.72-.72z"/><path d="m466.79 127.36h1.08v6.84h-1.08z"/></g></g></svg>