<?xml version="1.0" encoding="UTF-8" standalone="no"?>

<svg xmlns="http://www.w3.org/2000/svg" xmlns:xlink="http://www.w3.org/1999/xlink"
     version="1.1"
     height="90" width="240" viewBox="0 0 240 90">
  <defs>
    <linearGradient id="percentage" x1="0%" x2="0%" y1="0%" y2="100%">
      <stop offset="0%" stop-color="#1a2227" />
      <stop stop-color="#1a2227" offset="50%" />
      <stop offset="50%" stop-color="#f8f8f8" />
      <stop stop-color="#f8f8f8" offset="100%" />
    </linearGradient>
  </defs>
    <rect style="fill:#f8f8f8;stroke:#d1d3d5;stroke-opacity:1" width="240" height="90" x="0" y="0" rx="6" ry="6" />
      <path id="star-1" d="m 79.447386,65.3618 4.814743,-9.178725 -4.844695,-8.999163 10.217324,1.74271 7.061619,-7.388473 1.499911,10.255779 9.209012,4.432836 -9.290324,4.59571 -1.370135,10.128116 -7.241649,-7.415474 z" transform="matrix(0,-0.60518373,0.60518373,0,72,114)" style="fill:#1a2227;stroke:#1a2227;stroke-width:2;stroke-opacity:1" />
      <path id="star-2" d="m 79.447386,65.3618 4.814743,-9.178725 -4.844695,-8.999163 10.217324,1.74271 7.061619,-7.388473 1.499911,10.255779 9.209012,4.432836 -9.290324,4.59571 -1.370135,10.128116 -7.241649,-7.415474 z" transform="matrix(0,-0.60518373,0.60518373,0,97,114)" style="fill:#1a2227;stroke:#1a2227;stroke-width:2;stroke-opacity:1" />
      <path id="star-3" d="m 79.447386,65.3618 4.814743,-9.178725 -4.844695,-8.999163 10.217324,1.74271 7.061619,-7.388473 1.499911,10.255779 9.209012,4.432836 -9.290324,4.59571 -1.370135,10.128116 -7.241649,-7.415474 z" transform="matrix(0,-0.60518373,0.60518373,0,122,114)" style="fill:#1a2227;stroke:#1a2227;stroke-width:2;stroke-opacity:1" />
      <path id="star-4" d="m 79.447386,65.3618 4.814743,-9.178725 -4.844695,-8.999163 10.217324,1.74271 7.061619,-7.388473 1.499911,10.255779 9.209012,4.432836 -9.290324,4.59571 -1.370135,10.128116 -7.241649,-7.415474 z" transform="matrix(0,-0.60518373,0.60518373,0,147,114)" style="fill:#1a2227;stroke:#1a2227;stroke-width:2;stroke-opacity:1" />
      <path id="star-5" d="m 79.447386,65.3618 4.814743,-9.178725 -4.844695,-8.999163 10.217324,1.74271 7.061619,-7.388473 1.499911,10.255779 9.209012,4.432836 -9.290324,4.59571 -1.370135,10.128116 -7.241649,-7.415474 z" transform="matrix(0,-0.60518373,0.60518373,0,172,114)" style="fill:url(#percentage);stroke:#1a2227;stroke-width:2;stroke-opacity:1" />
    <text style="font-style:normal;font-weight:500;font-size:25px;line-height:125%;font-family:sans-serif;fill:#1a2227;fill-opacity:1;stroke:none" x="138" y="42">
    <tspan>4,9</tspan>
  </text>
  <g id="g10" transform="matrix(0.34887374, 0, 0,-0.34887374, 15 ,75)">
    <g id="g12" transform="scale(0.1,0.1)">
      <path d="m 1565.16,1442.96 -49.99,-48.74 -3.31,-3.2 c -7.22,-6.95 -18.87,-6.95 -26.08,0 l -6.82,6.7 c -7.14,6.95 -7.67,18.65 -0.51,25.64 l 53.43,52.13 c 8.95,8.79 8.95,23.06 0,31.81 l -8.79,8.66 c -8.97,8.71 -23.87,8.89 -32.84,0.1 l -53.36,-52.03 c -7.22,-7.1 -19.03,-6.69 -26.19,0.29 l -6.74,6.57 c -7.16,7.1 -7.46,18.29 -0.29,25.24 l 53.42,52.35 c 27.53,26.82 72.05,27.11 99.58,0.29 l 8.72,-8.55 c 27.59,-26.95 27.25,-70.43 -0.23,-97.26 z m -0.18,-229.03 -8.67,-8.47 c -27.58,-26.94 -72.11,-26.66 -99.57,0.3 l -49.98,48.76 -3.27,3.18 c -7.22,6.97 -7.22,18.44 0,25.51 l 6.74,6.61 c 7.16,6.96 19.15,7.57 26.31,0.5 l 53.43,-52.15 c 8.96,-8.79 23.68,-8.79 32.65,0 l 8.79,8.55 c 9.08,8.91 9.2,23.34 0.17,32.13 L 1478.2,1331 c -7.2,6.97 -6.85,18.44 0.36,25.55 l 6.75,6.56 c 7.23,6.99 18.67,7.28 25.84,0.3 l 53.48,-52.26 c 27.59,-26.83 27.88,-70.31 0.35,-97.22 z m -189.72,257.36 -6.74,-6.56 c -7.17,-6.98 -19.22,-7.56 -26.37,-0.53 l -53.25,52.18 c -9.08,8.76 -23.74,8.76 -32.77,0 l -8.79,-8.58 c -8.95,-8.79 -9.12,-23.34 -0.17,-32.13 l 53.38,-52.03 c 7.2,-7.09 6.85,-18.56 -0.37,-25.55 l -6.68,-6.66 c -7.22,-6.98 -18.73,-7.3 -25.84,-0.2 l -53.54,52.13 c -27.6,26.84 -27.87,70.32 -0.29,97.25 l 8.79,8.57 c 27.46,26.82 71.93,26.53 99.45,-0.41 l 49.92,-48.75 3.27,-3.2 c 7.16,-6.95 7.16,-18.44 0,-25.53 z m 0,-213.59 -53.48,-52.24 c -27.52,-26.94 -71.99,-27.23 -99.57,-0.32 l -8.79,8.59 c -27.47,26.83 -27.17,70.31 0.41,97.13 l 49.87,48.77 3.31,3.2 c 7.16,7.04 18.99,7.04 26.13,0 l 6.76,-6.6 c 7.15,-7 7.8,-18.67 0.58,-25.74 l -53.37,-52.05 c -9.07,-8.79 -9.07,-23.13 0,-31.89 l 8.79,-8.6 c 8.96,-8.77 23.81,-8.97 32.76,-0.19 l 53.37,52.15 c 7.23,6.98 19.03,6.7 26.25,-0.3 l 6.69,-6.68 c 7.28,-6.99 7.45,-18.26 0.29,-25.23 z m -250.03,-836.481 -3.54,-222.047 c 0,-19.512 -16.14,-35.551 -36.41,-35.551 l -217.995,0 c -19.972,0 -36.308,16.039 -36.308,35.551 l 0,222.047 -0.86,0 0,71.722 c 0,77.278 -64.512,140.149 -143.554,140.149 l -77.032,0 c -79.218,0 -143.535,-62.871 -143.535,-140.149 l -1.523,0 0,-293.769 c 0,-19.512 -16.25,-35.551 -36.407,-35.551 l -218.105,0 c -20.059,0 -36.309,16.039 -36.309,35.551 l 0,1321.538 c 0,19.45 16.25,35.5 36.309,35.5 l 218.105,0 c 20.157,0 36.407,-16.05 36.407,-35.5 l 0,-623.714 c 45.488,15.539 94.226,24.18 145.058,24.18 l 73.789,0 0,0.859 c 79.317,0 143.633,62.883 143.633,139.995 l 4.598,71.86 c 2.953,16.73 17.765,29.49 35.734,29.49 l 217.995,0 c 18.06,0 32.87,-12.76 35.83,-29.49 l 0.96,0 0,-71.86 c 0,-108.276 -41.48,-207.182 -109.61,-282.678 C 1082.42,703.34 1125.23,603 1125.23,492.941 Z m 514.57,1298.601 -1559.8,0 c -44.1914,0 -80,-35.81 -80,-80 L 0,80 C 0,35.8281 35.8086,0 80,0 l 1559.8,0 c 44.18,0 80,35.8281 80,80 l 0,1559.82 c 0,44.19 -35.82,80 -80,80"
      style="fill:#1a2227;fill-opacity:1;fill-rule:nonzero;stroke:none" />
    </g>
  </g>
</svg>
