<?xml version="1.0" encoding="utf-8"?>
<svg version="1.0" width="300.000000pt" height="43.000000pt" viewBox="0 0 300.000000 43.000000" preserveAspectRatio="xMidYMid meet" xmlns="http://www.w3.org/2000/svg">
  <g transform="translate(0.000000,43.000000) scale(0.100000,-0.100000)" fill="#000" stroke="none">
    <path d="M1340 370 c0 -36 -3 -40 -24 -40 -14 0 -28 -4 -31 -10 -3 -5 -19 -10 -34 -10 -16 0 -34 -7 -41 -15 -7 -9 -27 -15 -44 -14 -17 0 -44 -2 -61 -4 -16 -3 -79 -8 -139 -12 -60 -4 -146 -14 -190 -22 -45 -8 -95 -17 -113 -20 -17 -3 -39 -14 -49 -24 -17 -19 -68 -26 -78 -10 -10 16 -61 19 -92 6 -23 -9 -35 -10 -43 -2 -7 7 -21 5 -46 -9 -19 -10 -35 -22 -35 -27 0 -5 15 0 34 11 22 13 37 17 44 10 6 -6 24 -5 51 3 36 11 47 10 77 -5 39 -18 62 -15 104 14 42 30 267 62 515 74 28 1 61 9 75 16 14 8 29 13 33 12 4 -1 18 3 30 9 38 21 88 20 129 -3 21 -12 38 -25 38 -30 0 -4 5 -8 10 -8 6 0 23 -9 38 -20 21 -15 35 -17 62 -11 29 6 41 3 68 -18 34 -25 122 -40 122 -20 0 5 13 9 29 9 25 0 28 -3 25 -22 -3 -15 0 -12 10 9 19 41 47 56 72 39 19 -13 65 -28 96 -31 10 -1 24 -8 32 -14 16 -13 60 -6 91 15 21 15 59 19 52 7 -3 -5 13 -7 36 -7 33 1 45 -4 65 -28 15 -17 22 -36 19 -48 -3 -11 -1 -20 4 -20 5 0 9 5 9 10 0 6 5 10 10 10 6 0 10 -11 10 -25 0 -14 -4 -25 -9 -25 -21 0 -41 13 -41 26 0 8 -8 14 -18 14 -10 0 -23 5 -29 11 -5 5 -21 11 -34 13 -14 1 -30 5 -35 9 -6 3 -27 -5 -46 -19 -33 -23 -36 -30 -32 -62 3 -21 12 -44 21 -52 14 -13 15 -13 10 3 -4 10 -1 17 6 17 8 0 8 3 -2 9 -25 16 -2 29 43 26 30 -2 46 1 49 10 4 10 -7 12 -49 8 l-54 -5 11 26 c13 29 46 35 55 11 5 -11 10 -13 19 -5 14 11 48 3 40 -10 -3 -5 3 -15 13 -22 27 -18 38 -58 18 -58 -9 0 -16 -4 -16 -9 0 -10 42 -6 65 7 12 6 14 11 6 16 -6 4 -11 4 -11 1 0 -3 -6 0 -14 7 -17 16 -9 33 9 18 9 -7 15 -7 23 2 14 18 20 73 7 71 -6 -1 -12 8 -12 20 -2 20 -1 21 11 4 7 -9 18 -17 24 -17 5 0 8 -10 5 -22 l-4 -23 13 22 13 21 30 -24 c28 -23 29 -26 13 -38 -25 -18 -23 -29 3 -16 23 13 46 0 58 -34 7 -19 8 -19 13 2 4 14 2 20 -5 15 -6 -4 -8 0 -4 10 5 12 1 17 -12 17 -10 0 -26 11 -35 25 -9 14 -33 40 -53 59 -32 29 -40 32 -75 26 -48 -9 -58 4 -19 25 37 19 65 19 80 1 13 -15 101 -20 146 -7 23 6 39 3 67 -13 21 -12 38 -25 38 -29 0 -18 46 -46 76 -47 17 0 48 -7 69 -15 23 -10 41 -13 48 -7 7 5 26 12 42 16 17 4 44 14 62 22 28 14 34 14 62 -1 17 -8 31 -12 31 -7 0 5 -15 17 -33 27 -31 16 -35 17 -59 1 -42 -27 -123 -48 -150 -37 -13 5 -39 12 -59 16 -21 3 -60 24 -94 51 -55 42 -62 45 -99 38 -55 -10 -111 -6 -153 11 -30 13 -38 13 -63 0 -33 -17 -80 -19 -127 -6 -25 7 -40 4 -78 -15 -38 -19 -50 -21 -66 -11 -10 6 -19 15 -19 18 0 3 -11 4 -24 2 -15 -3 -41 4 -66 18 -40 23 -41 23 -72 4 -18 -10 -43 -20 -57 -22 -15 -2 -45 -6 -69 -9 -36 -5 -48 -2 -77 20 -29 22 -40 25 -75 20 -32 -5 -45 -3 -63 13 -32 28 -78 56 -112 69 -27 10 -29 15 -27 47 2 22 -1 37 -7 37 -6 0 -11 -18 -11 -40z"/>
    <path d="M1331 259 c0 -15 -7 -32 -15 -38 -11 -9 -14 -8 -12 6 0 11 -5 17 -13 15 -8 -2 -17 2 -21 8 -5 8 -9 7 -13 -4 -4 -10 -1 -16 8 -16 8 0 24 -9 36 -21 15 -15 28 -19 45 -15 23 6 24 5 14 -13 -8 -17 -8 -19 4 -15 11 4 13 0 9 -15 -3 -12 0 -28 7 -36 7 -8 9 -15 4 -15 -5 0 4 -9 20 -19 36 -24 67 -13 64 24 -1 13 -6 21 -10 19 -5 -3 -6 -10 -3 -15 4 -5 0 -9 -7 -9 -9 0 -9 -3 2 -10 10 -6 11 -10 3 -10 -19 0 -28 4 -26 12 2 4 -5 4 -14 1 -10 -4 -14 -2 -10 4 4 6 0 16 -7 22 -22 18 -13 67 10 63 11 -2 25 -11 32 -20 8 -11 12 -12 12 -3 0 10 3 11 14 2 11 -9 16 -9 22 0 4 7 2 15 -4 17 -7 2 -10 7 -7 12 3 4 -2 10 -10 13 -10 4 -12 1 -9 -11 3 -9 -2 -6 -10 8 -9 14 -15 19 -16 11 0 -11 -4 -10 -14 4 -13 18 -17 18 -42 5 -16 -8 -32 -16 -36 -18 -5 -2 -8 4 -8 12 0 10 9 16 23 17 15 1 17 3 5 6 -9 2 -19 14 -21 26 -4 19 -4 18 -6 -4z m78 -56 c0 -10 -3 -13 -5 -6 -3 7 -12 9 -21 6 -11 -4 -14 -2 -9 5 11 18 36 14 35 -5z"/>
    <path d="M1216 254 c-11 -8 -18 -14 -15 -15 2 0 12 -2 21 -4 21 -4 34 13 22 25 -5 5 -18 2 -28 -6z"/>
    <path d="M1168 243 c7 -3 16 -2 19 1 4 3 -2 6 -13 5 -11 0 -14 -3 -6 -6z"/>
    <path d="M1100 230 c8 -5 29 -9 45 -9 29 1 29 1 5 9 -14 4 -34 8 -45 9 -16 1 -17 -1 -5 -9z"/>
    <path d="M946 215 c-16 -12 -22 -12 -29 -2 -6 8 -7 7 -4 -4 3 -9 1 -22 -4 -28 -6 -7 -5 -8 2 -2 6 5 18 7 27 3 14 -5 14 -6 0 -11 -14 -5 -14 -8 -2 -19 12 -11 14 -10 14 3 0 9 9 15 26 15 30 0 28 24 -2 27 -18 3 -18 2 1 -6 16 -8 17 -10 3 -10 -9 -1 -24 2 -33 5 -14 6 -14 8 4 20 11 8 28 11 38 8 15 -5 15 -4 3 5 -19 14 -21 13 -44 -4z"/>
    <path d="M1184 219 c-3 -5 9 -9 25 -9 17 0 31 2 31 4 0 8 -51 13 -56 5z"/>
    <path d="M815 206 c-11 -8 -25 -12 -31 -9 -7 2 -15 0 -19 -6 -3 -7 0 -8 9 -5 20 8 21 -10 1 -26 -16 -14 -20 -40 -6 -40 5 0 14 7 21 15 7 8 21 15 31 15 10 0 23 9 29 20 6 11 7 20 3 19 -27 -5 -35 1 -23 16 16 19 10 19 -15 1z m10 -22 c13 -5 14 -8 3 -15 -21 -14 -38 -10 -32 6 7 17 7 17 29 9z m-35 -38 c0 -3 -4 -8 -10 -11 -5 -3 -10 -1 -10 4 0 6 5 11 10 11 6 0 10 -2 10 -4z"/>
    <path d="M1038 213 c-17 -4 -14 -33 4 -33 5 0 7 4 3 9 -3 5 3 11 12 13 10 2 14 6 8 9 -5 3 -18 4 -27 2z"/>
    <path d="M885 174 c4 -50 13 -53 11 -4 0 22 -4 40 -8 40 -3 0 -5 -16 -3 -36z"/>
    <path d="M 1455.191 283.592 C 1436.85 304.178 1418.577 312.652 1397.412 319.846 C 1375.956 327.138 1350.474 330.1 1327.17 326.643 C 1304.269 323.247 1277.4 312.379 1258.088 299.542 C 1256.14 299.335 1254.187 299.083 1252.227 298.788 C 1229.577 295.373 1200.753 283.654 1180.694 270.785 C 1121.49 264.75 1058.97 257.76 1020.018 255.619 C 968.405 252.781 939.66 256.389 899.927 253.353 C 860.357 250.329 821.506 244.229 782.102 237.492 C 742.204 230.67 695.73 225.724 662.012 212.567 C 632.695 201.128 607.314 188.381 588.376 167.255 C 582.182 169.605 576.059 171.635 570.15 173.217 C 563.522 174.992 556.658 176.574 549.67 177.914 C 547.278 179.126 544.868 180.246 542.45 181.262 C 519.755 190.795 490.56 195.508 465.411 192.591 C 454.149 191.285 442.063 188 430.388 183.581 C 416.705 185.565 404.134 185.899 388.688 182.251 C 372.714 178.48 350.3 168.803 332.06 158.756 C 312.227 158.722 296.196 157.126 282.668 156.099 C 266.75 154.89 260.515 153.852 248.68 149.301 C 237.886 145.151 225.349 138.61 214.201 130.84 C 209.755 130.248 205.629 129.583 201.885 128.839 C 192.39 126.952 184.097 124.704 176.651 122.133 C 160.382 125.365 143.607 125.576 127.228 123 C 102.383 119.094 71.692 105.211 52.454 91.278 C 35.655 79.111 24.325 63.56 15.068 47.094 C 10.528 39.019 6.64 30.364 3.579 21.367 C -6.763 16.356 -16.303 10.696 -23.957 5.142 C -40.071 -6.553 -49.93 -20.534 -59.077 -36.777 C -68.717 -53.894 -76.888 -75.837 -79.47 -95.689 C -81.998 -115.121 -80.834 -135.244 -74.938 -154.602 C -68.63 -175.315 -54.524 -199.699 -40.951 -215.78 C -28.782 -230.197 -14.392 -240.507 0.968 -248.635 C 16.217 -256.705 32.787 -262.42 50.817 -264.496 C 70.313 -266.74 94.748 -265.458 114.261 -259.964 C 133.168 -254.641 151.641 -244.244 166.376 -232.774 C 170.279 -229.736 174.004 -226.519 177.546 -223.131 C 190.802 -218.464 203.503 -211.82 214.9 -203.667 C 231.377 -213.012 250.336 -219.729 272.492 -223.302 C 299.177 -227.606 322.783 -226.809 365.392 -223.302 C 399.639 -220.483 451.507 -211.632 505.618 -202.484 C 551.091 -227.967 595.915 -252.063 622.071 -264.123 C 652.861 -278.32 666.367 -283.96 687.781 -286.782 C 707.848 -289.426 728.386 -287.299 746.694 -282.25 C 761.242 -278.238 775.209 -272.019 787.964 -263.528 C 819.821 -270.325 849.159 -275.362 871.792 -276.681 C 910.51 -278.937 935.914 -272.984 960.161 -265.351 C 980.41 -258.977 995.777 -249.804 1010.01 -238.161 C 1024.03 -226.691 1036.262 -211.881 1045.13 -196.243 C 1054.031 -180.548 1060.774 -163.154 1063.257 -144.128 C 1065.959 -123.428 1065.151 -97.306 1058.726 -76.152 C 1054.802 -63.233 1048.481 -50.127 1040.797 -38.205 C 1120.442 -31.9 1202.857 -27.474 1244.338 -27.614 C 1257.741 -27.659 1267.438 -28.723 1275.565 -29.996 C 1277.278 -30.986 1279.02 -31.939 1280.794 -32.857 C 1291.18 -38.228 1302.216 -42.331 1313.669 -45.042 C 1321.49 -56.217 1329.492 -66.6 1336.831 -75.55 C 1355.652 -98.503 1375.223 -116.063 1396.876 -128.798 C 1417.319 -140.821 1439.584 -149.059 1462.586 -151.457 C 1486.339 -153.933 1515.479 -150.142 1537.359 -142.393 C 1557.753 -135.171 1576.323 -122.509 1590.607 -108.405 C 1596.777 -102.313 1602.328 -95.263 1607.222 -87.844 C 1613.094 -86.914 1618.81 -85.68 1624.222 -84.156 C 1632.655 -81.782 1640.96 -78.493 1648.899 -74.518 C 1651.391 -76.238 1653.92 -77.874 1656.477 -79.417 C 1672.607 -89.15 1691.022 -96.953 1710.857 -99.809 C 1732.278 -102.895 1760.452 -101.151 1781.099 -95.278 C 1794.112 -91.576 1805.924 -85.713 1816.745 -78.571 C 1833.011 -85.86 1851.797 -90.708 1868.817 -92.212 C 1878.278 -93.047 1888.069 -92.787 1897.687 -91.68 C 1898.203 -91.988 1898.723 -92.294 1899.247 -92.599 C 1918.248 -103.638 1945.801 -114.199 1969.489 -117.524 C 1992.641 -120.773 2019.342 -118.585 2039.73 -112.992 C 2058.029 -107.972 2072.829 -99.657 2087.313 -88.068 C 2090.11 -85.83 2092.935 -83.449 2095.744 -80.936 C 2098.888 -82.567 2102.102 -84.151 2105.382 -85.685 C 2142.063 -102.836 2207.276 -120.034 2243.599 -124.204 C 2269.833 -127.216 2287.042 -125.327 2307.043 -119.673 C 2327.075 -114.01 2350.96 -92.968 2363.69 -90.216 C 2371.012 -88.634 2371.743 -92.321 2379.551 -92.482 C 2389.55 -92.689 2408.442 -93.202 2425.695 -91.186 C 2425.913 -91.269 2426.131 -91.352 2426.35 -91.435 C 2432.047 -96.085 2438.106 -100.252 2444.628 -104.062 C 2455.755 -110.562 2468.375 -116.335 2481.722 -120.167 C 2490.479 -125.748 2499.597 -130.519 2508.308 -134.181 C 2523.017 -140.365 2538.032 -143.146 2553.716 -144.639 C 2564.444 -155.718 2577.162 -165.562 2590.113 -172.784 C 2607.224 -182.326 2627.474 -188.652 2646.76 -190.911 C 2653.866 -191.743 2661.207 -192.098 2668.583 -191.935 C 2674.699 -193.568 2680.852 -194.826 2686.871 -195.616 C 2707.34 -198.304 2731.03 -196.315 2750.315 -191.084 C 2752.892 -190.385 2755.445 -189.609 2757.969 -188.76 C 2772.82 -195.926 2789.581 -201.674 2808.365 -203.781 C 2830.528 -206.267 2859.525 -206.27 2883.138 -199.249 C 2901.036 -193.928 2921.517 -182.049 2937.122 -171.195 C 2947.329 -170.458 2957.489 -168.745 2967.097 -166.078 C 2969.569 -165.392 2972.058 -164.628 2974.551 -163.792 C 2976.035 -163.445 2977.494 -163.078 2978.924 -162.69 C 2997.216 -157.729 3014.249 -148.88 3028.773 -137.766 C 3043.341 -126.617 3056.555 -111.764 3066.159 -95.847 C 3075.893 -79.717 3083.695 -61.303 3086.552 -41.467 C 3089.637 -20.046 3088.459 6.85 3082.02 28.775 C 3075.597 50.65 3063.967 72.966 3048.032 89.953 C 3031.478 107.601 3005.641 123.88 2983.455 131.872 C 2962.875 139.285 2938.707 139.955 2920.011 138.669 C 2903.822 137.556 2890.945 133.458 2876.96 127.34 C 2865.699 122.413 2853.874 115.795 2843.319 107.881 C 2839.843 105.747 2836.527 103.54 2833.411 101.294 C 2832.815 100.864 2832.222 100.427 2831.634 99.984 C 2830.674 99.942 2829.715 99.895 2828.758 99.845 C 2812.08 98.969 2792.75 95.211 2777.126 90.389 C 2772.739 92.802 2768.312 94.927 2763.91 96.68 C 2755.306 100.106 2745.943 102.734 2736.289 104.502 C 2726.906 109.83 2717.195 114.268 2707.938 117.246 C 2699.492 119.963 2690.805 121.933 2681.982 123.059 C 2667.105 134.765 2649.72 145.413 2632.93 151.318 C 2629.951 152.366 2626.873 153.321 2623.715 154.186 C 2607.073 170.329 2582.73 185.331 2562.453 192.766 C 2547.754 198.156 2531.363 199.552 2516.952 199.71 C 2498.047 203.795 2477.32 202.991 2462.744 202.427 C 2459.585 202.304 2456.767 202.159 2454.147 201.945 C 2451.988 202.773 2449.782 203.573 2447.527 204.345 C 2410.719 216.953 2335.43 222.726 2304.777 222.472 C 2286.995 222.325 2280.747 220.137 2268.524 215.675 C 2255.096 210.773 2243.536 194.324 2227.738 193.016 C 2209.519 191.508 2185.393 211.252 2164.294 213.409 C 2143.855 215.498 2121.576 212.576 2103.116 206.611 C 2085.494 200.918 2069.111 190.466 2055.533 179.421 C 2054.178 178.318 2052.845 177.214 2051.536 176.101 C 2044.937 179.227 2037.98 181.909 2030.667 183.836 C 2024.74 185.398 2018.357 186.803 2011.705 187.915 C 1998.307 197.487 1984.115 205.984 1972.666 211.273 C 1954.91 219.474 1940.171 220.675 1922.817 222.602 C 1921.109 222.792 1919.371 222.965 1917.607 223.123 C 1895.709 230.825 1868.157 230.968 1848.425 229.541 C 1831.748 228.335 1819.297 224.621 1805.373 218.211 C 1794.507 213.209 1783.276 206.567 1773.053 198.364 C 1755.224 202.357 1735.589 202.568 1719.921 201.55 C 1703.741 200.499 1689.723 196.45 1676.488 191.007 C 1662.474 204.884 1646.083 216.642 1628.754 224.001 C 1608.501 232.601 1583.851 237.497 1560.783 236.184 C 1542.773 240.093 1520.962 242.104 1505.332 241.64 C 1505.164 241.635 1504.997 241.63 1504.83 241.624 C 1497.871 246.593 1490.526 250.924 1482.979 254.133 C 1480.178 255.324 1477.193 256.407 1474.07 257.391 C 1467.611 267.778 1461.197 276.851 1455.191 283.592 Z" style="fill: rgba(0, 0, 0, 0.4);"/>
    <path d="M1531 161 c-19 -46 -24 -51 -38 -39 -14 11 -15 11 -11 -2 2 -8 19 -16 36 -18 18 -2 32 -8 32 -13 0 -6 7 -3 16 5 19 20 28 20 44 1 18 -21 40 -19 40 5 0 11 -4 20 -10 20 -5 0 -7 -8 -4 -17 4 -13 2 -12 -8 3 -10 16 -19 19 -38 13 -14 -4 -35 -7 -48 -8 l-23 -1 22 39 c12 21 19 45 17 52 -2 7 -14 -11 -27 -40z"/>
    <path d="M726 178 c-9 -12 -16 -28 -16 -35 0 -7 -4 -13 -10 -13 -5 0 -6 8 -3 18 6 15 4 15 -9 4 -9 -7 -15 -22 -13 -32 3 -13 -2 -18 -16 -17 -24 2 -25 17 -1 18 10 0 12 3 4 6 -6 2 -10 9 -6 14 3 5 -1 16 -9 24 -13 12 -15 12 -20 -5 -3 -11 -1 -20 3 -20 4 0 6 -9 3 -20 -3 -13 -14 -20 -29 -20 -13 0 -24 -5 -24 -11 0 -10 17 -9 110 7 52 10 74 26 25 19 -37 -5 -38 -4 -12 6 15 6 25 15 22 20 -3 4 2 20 11 34 20 31 11 34 -10 3z"/>
    <path d="M1070 190 c-13 -8 -12 -10 3 -10 9 0 17 5 17 10 0 12 -1 12 -20 0z"/>
    <path d="M1104 185 c-4 -17 -12 -20 -40 -17 -19 2 -34 0 -34 -6 0 -5 12 -7 26 -4 15 3 29 -1 34 -8 6 -9 10 -7 14 8 8 23 46 19 46 -4 0 -17 16 -18 23 -1 6 16 -15 35 -32 29 -7 -2 -17 2 -22 9 -7 11 -10 10 -15 -6z"/>
    <path d="M1578 182 c-11 -12 -11 -16 0 -20 10 -3 10 -7 0 -20 -12 -15 -11 -16 4 -4 9 8 21 11 26 9 4 -3 14 -2 22 4 11 6 12 9 2 9 -7 0 -12 7 -10 16 4 22 -28 26 -44 6z m36 -7 c-7 -17 -20 -20 -29 -6 -3 5 3 12 12 14 10 3 19 5 20 6 1 0 0 -6 -3 -14z"/>
    <path d="M1855 186 l-30 -13 32 1 c19 1 33 6 33 14 0 14 3 14 -35 -2z"/>
    <path d="M1908 188 c6 -6 18 -8 28 -6 14 3 12 5 -9 10 -19 3 -25 2 -19 -4z"/>
    <path d="M1182 170 c7 -11 25 -24 40 -29 16 -6 28 -16 28 -22 0 -10 -3 -10 -12 -1 -15 15 -28 15 -28 1 0 -5 4 -8 9 -4 5 3 12 1 16 -5 3 -5 16 -10 28 -10 18 0 19 2 7 11 -12 8 -11 9 5 7 16 -3 19 -11 18 -36 -2 -25 0 -30 13 -25 9 3 12 8 5 12 -6 4 -7 12 -1 21 12 18 13 31 3 28 -14 -3 -112 45 -108 53 3 4 -2 10 -11 13 -24 9 -25 8 -12 -14z"/>
    <path d="M2104 175 c-16 -12 -16 -14 -3 -15 9 0 22 7 29 15 16 19 0 19 -26 0z"/>
    <path d="M1762 155 c-14 -30 -12 -31 10 -5 10 10 14 22 9 24 -4 3 -13 -6 -19 -19z"/>
    <path d="M2186 171 c-4 -5 1 -8 9 -7 21 3 31 16 12 16 -9 0 -18 -4 -21 -9z"/>
    <path d="M2440 166 c0 -8 -3 -22 -7 -32 -4 -12 -2 -15 8 -12 8 3 13 11 11 18 -2 8 3 10 13 7 22 -9 19 6 -5 21 -16 10 -20 10 -20 -2z"/>
    <path d="M2501 170 c0 -8 4 -22 9 -30 12 -18 12 -2 0 25 -6 13 -9 15 -9 5z"/>
    <path d="M445 160 c-17 -7 -15 -9 13 -9 17 -1 32 4 32 9 0 12 -17 12 -45 0z"/>
    <path d="M1655 160 c-1 -3 3 -11 11 -18 8 -7 14 -8 14 -3 0 5 8 10 18 10 43 1 52 5 43 14 -7 7 -15 6 -26 -3 -8 -7 -15 -8 -15 -3 0 9 -39 13 -45 3z"/>
    <path d="M2530 159 c0 -4 7 -9 15 -13 8 -3 15 -11 15 -17 0 -8 -4 -8 -15 1 -30 25 -14 -7 20 -40 19 -19 35 -29 35 -24 0 6 -5 15 -12 22 -6 6 -13 22 -15 34 -2 13 -8 25 -13 26 -6 2 -8 7 -6 11 3 4 -1 8 -9 8 -8 0 -15 -4 -15 -8z"/>
    <path d="M231 146 c-8 -9 -44 -17 -101 -21 -84 -7 -90 -9 -90 -30 0 -12 -9 -30 -20 -40 -11 -10 -20 -23 -20 -28 0 -6 11 0 25 13 14 13 25 31 25 40 0 12 17 19 71 28 39 7 75 9 81 6 5 -3 20 4 33 16 15 14 32 21 45 17 11 -3 23 -1 26 4 9 15 -63 10 -75 -5z"/>
    <path d="M866 141 c-3 -4 -10 -20 -16 -35 -9 -24 -8 -26 7 -18 9 5 17 21 18 36 1 28 -1 31 -9 17z"/>
    <path d="M1783 138 c-8 -13 -13 -33 -15 -55 -1 -7 -5 -13 -9 -13 -4 0 -9 -15 -11 -34 -2 -19 0 -32 4 -30 4 3 8 11 8 19 0 7 6 20 14 27 7 8 16 33 19 56 5 44 3 50 -10 30z"/>
    <path d="M1865 140 c3 -6 -2 -13 -12 -16 -10 -3 -27 -9 -38 -14 -17 -7 -15 -8 8 -6 15 2 30 6 34 9 9 10 33 8 33 -2 0 -5 -11 -12 -25 -15 -14 -4 -25 -11 -25 -17 0 -6 -4 -8 -10 -4 -5 3 -5 -7 1 -25 13 -35 39 -41 38 -7 0 12 -3 16 -6 10 -6 -17 -23 -16 -23 1 0 15 27 30 48 27 6 -1 12 4 12 11 0 7 3 24 6 38 4 20 3 22 -5 10 -7 -10 -11 -11 -11 -2 0 6 -7 12 -16 12 -8 0 -12 -5 -9 -10z"/>
    <path d="M1927 143 c-12 -11 -8 -44 6 -42 38 5 44 -1 40 -38 -2 -21 -5 -43 -8 -50 -2 -7 2 -10 9 -7 8 3 12 14 9 25 -4 15 0 19 22 19 22 0 26 4 22 20 -3 11 -1 20 4 20 5 0 9 -6 9 -14 0 -8 4 -18 10 -21 6 -4 7 1 3 12 -17 47 -54 61 -45 17 3 -19 1 -25 -8 -22 -8 2 -16 10 -18 18 -3 7 0 10 7 6 7 -5 10 0 7 16 -3 13 -5 26 -5 31 -1 4 -9 7 -18 7 -14 0 -15 -2 -5 -9 11 -7 11 -9 -1 -14 -19 -7 -41 8 -33 22 8 12 3 15 -7 4z"/>
    <path d="M2050 136 c7 -7 13 -7 20 0 6 6 3 10 -10 10 -13 0 -16 -4 -10 -10z"/>
    <path d="M2208 143 c7 -3 16 -2 19 1 4 3 -2 6 -13 5 -11 0 -14 -3 -6 -6z"/>
    <path d="M520 130 c0 -5 -6 -7 -14 -4 -8 3 -17 0 -22 -7 -5 -9 -2 -10 9 -6 17 6 24 -7 10 -16 -5 -2 -2 -2 4 -1 7 2 35 6 63 10 27 4 50 10 50 14 0 9 -44 5 -61 -6 -8 -5 -11 -2 -7 7 4 10 -1 15 -13 16 -10 1 -19 -2 -19 -7z m20 -10 c0 -5 -5 -10 -11 -10 -5 0 -7 5 -4 10 3 6 8 10 11 10 2 0 4 -4 4 -10z"/>
    <path d="M1335 130 c-3 -5 1 -10 9 -10 9 0 16 5 16 10 0 6 -4 10 -9 10 -6 0 -13 -4 -16 -10z"/>
    <path d="M1828 133 c7 -3 16 -2 19 1 4 3 -2 6 -13 5 -11 0 -14 -3 -6 -6z"/>
    <path d="M2250 129 c0 -5 5 -7 10 -4 6 3 10 8 10 11 0 2 -4 4 -10 4 -5 0 -10 -5 -10 -11z"/>
    <path d="M2480 130 c-8 -5 -11 -10 -6 -10 5 0 3 -6 -3 -14 -8 -10 -9 -16 -1 -21 6 -4 9 -1 8 6 -2 6 2 13 8 16 7 2 10 -10 9 -33 -3 -42 4 -74 15 -74 4 0 4 18 0 40 -4 22 -3 37 1 34 15 -9 10 23 -6 36 -8 7 -12 16 -9 21 7 11 3 11 -16 -1z"/>
    <path d="M267 116 c-9 -7 -17 -19 -17 -25 0 -7 -4 -10 -9 -6 -5 3 -13 0 -17 -6 -4 -8 -3 -9 4 -5 7 4 12 3 12 -2 0 -6 -11 -9 -25 -8 -24 1 -37 16 -13 16 6 0 9 2 6 5 -9 9 -38 -7 -32 -17 5 -7 -4 -9 -24 -6 -21 3 -33 0 -37 -10 -3 -7 -11 -12 -18 -9 -6 2 -17 -3 -24 -12 -8 -11 -12 -12 -13 -3 0 6 -5 12 -11 12 -8 0 -9 -4 0 -13 6 -8 7 -17 3 -22 -4 -4 4 -2 17 5 13 6 34 13 47 15 21 2 22 0 12 -14 -11 -14 -11 -14 3 -4 9 7 19 10 22 6 4 -3 7 -4 7 0 0 3 -7 12 -15 20 -12 13 -10 14 18 12 41 -4 39 -2 28 -23 -8 -14 -5 -18 12 -19 12 -1 17 1 11 5 -11 7 -15 42 -5 39 20 -5 70 30 74 53 6 31 6 31 -16 16z"/>
    <path d="M303 105 c-13 -28 -10 -30 19 -14 14 8 23 8 31 0 14 -14 37 -14 37 -1 0 5 -7 7 -15 4 -30 -12 -14 7 18 21 17 8 26 14 19 15 -7 0 -22 -5 -33 -11 -15 -8 -24 -7 -37 3 -10 8 -13 9 -9 1 4 -6 3 -14 -2 -17 -5 -4 -11 1 -13 9 -2 10 -7 7 -15 -10z"/>
    <path d="M910 115 c-14 -8 -21 -14 -16 -15 5 0 3 -6 -3 -14 -9 -11 -9 -15 1 -19 7 -3 -1 -6 -18 -6 -22 -1 -34 -8 -42 -24 -11 -20 -12 -20 -7 9 5 25 2 32 -19 42 -22 10 -24 9 -21 -10 3 -12 10 -25 17 -30 10 -6 9 -11 -4 -22 -25 -18 -22 -24 8 -18 14 2 28 11 31 18 4 10 10 11 26 3 21 -10 21 -10 3 5 -19 15 -19 16 8 16 18 0 25 -4 21 -13 -4 -6 3 -1 14 12 12 13 21 18 21 12 0 -7 5 -9 10 -6 6 3 9 18 9 33 -1 15 -3 20 -6 10 -4 -15 -32 -33 -40 -25 -9 10 11 37 35 46 15 5 20 10 12 10 -8 0 -26 -6 -40 -14z m-90 -56 c0 -6 -4 -7 -10 -4 -5 3 -10 11 -10 16 0 6 5 7 10 4 6 -3 10 -11 10 -16z"/>
    <path d="M980 120 c-8 -5 -11 -10 -6 -10 5 0 3 -7 -4 -15 -8 -9 -8 -15 -2 -15 6 0 14 9 17 20 3 11 13 20 21 20 14 0 14 -2 0 -15 -8 -9 -13 -22 -10 -30 4 -10 0 -15 -14 -15 -25 0 -38 -29 -16 -37 8 -3 18 -3 21 1 4 3 -2 6 -13 6 -15 0 -16 2 -4 9 8 6 18 7 22 5 5 -3 13 8 19 24 10 28 39 52 39 33 0 -5 -6 -11 -12 -13 -7 -3 -3 -7 9 -10 12 -3 22 -3 21 1 -2 20 4 31 17 31 9 0 15 -10 16 -22 1 -22 1 -22 8 2 6 20 3 26 -13 31 -12 3 -31 2 -43 -2 -13 -5 -25 -4 -28 1 -8 13 -26 12 -45 0z"/>
    <path d="M1141 117 c-5 -7 -15 -26 -20 -42 -10 -26 -9 -28 2 -13 8 10 17 15 21 11 4 -4 4 0 0 10 -4 12 -1 17 11 17 11 0 15 -5 11 -15 -4 -11 2 -15 20 -15 14 0 22 4 19 10 -3 6 -1 10 4 10 6 0 11 -8 11 -19 0 -25 36 -34 52 -13 9 10 9 13 1 9 -6 -4 -14 -3 -18 3 -3 6 -20 17 -37 26 -16 9 -27 11 -24 5 4 -6 2 -11 -3 -11 -6 0 -11 6 -11 14 0 19 -26 28 -39 13z"/>
    <path d="M440 109 c0 -5 -4 -8 -9 -5 -5 3 -15 -2 -22 -11 -12 -15 -12 -16 6 -9 11 5 25 9 31 9 12 0 15 27 2 27 -4 0 -8 -5 -8 -11z"/>
    <path d="M1660 93 c0 -22 2 -25 10 -13 13 20 13 40 0 40 -5 0 -10 -12 -10 -27z"/>
    <path d="M1692 100 c-19 -30 -14 -36 8 -10 22 25 24 30 12 30 -4 0 -13 -9 -20 -20z"/>
    <path d="M1727 107 c-7 -20 17 -24 29 -5 4 6 3 8 -4 4 -5 -3 -12 -1 -14 6 -3 8 -7 6 -11 -5z"/>
    <path d="M2926 111 c-5 -8 12 -51 19 -51 4 0 3 4 0 10 -3 5 -1 18 4 28 8 14 6 19 -5 19 -8 0 -16 -3 -18 -6z"/>
    <path d="M2377 93 c4 -11 2 -14 -5 -9 -8 5 -10 2 -6 -8 5 -14 -8 -20 -36 -18 -3 0 -7 -13 -8 -29 -3 -34 14 -39 24 -6 7 21 7 21 15 2 7 -20 8 -20 8 1 1 11 8 29 16 40 18 24 18 31 1 37 -11 4 -13 1 -9 -10z"/>
    <path d="M2893 97 c0 -8 6 -14 14 -14 9 0 10 4 2 14 -6 7 -12 13 -14 13 -1 0 -2 -6 -2 -13z"/>
    <path d="M2981 93 c7 -12 15 -20 18 -17 3 2 -3 12 -13 22 -17 16 -18 16 -5 -5z"/>
    <path d="M1081 84 c0 -11 3 -14 6 -6 3 7 2 16 -1 19 -3 4 -6 -2 -5 -13z"/>
    <path d="M1580 86 c0 -23 16 -27 17 -5 1 10 -2 19 -8 19 -5 0 -9 -6 -9 -14z"/>
    <path d="M2533 86 c0 -8 11 -19 24 -25 17 -8 23 -18 21 -32 -2 -16 3 -23 20 -25 23 -4 23 -3 -7 34 -41 52 -58 66 -58 48z"/>
    <path d="M470 82 c0 -15 23 -20 45 -11 20 9 20 9 0 7 -11 -2 -26 1 -32 5 -7 5 -13 4 -13 -1z"/>
    <path d="M545 80 c-3 -5 -2 -10 4 -10 5 0 13 5 16 10 3 6 2 10 -4 10 -5 0 -13 -4 -16 -10z"/>
    <path d="M695 80 c-16 -7 -17 -9 -3 -9 9 -1 20 4 23 9 7 11 7 11 -20 0z"/>
    <path d="M1520 75 c0 -8 2 -15 4 -15 2 0 6 7 10 15 3 8 1 15 -4 15 -6 0 -10 -7 -10 -15z"/>
    <path d="M1925 81 c-3 -5 -2 -12 3 -15 5 -3 9 1 9 9 0 17 -3 19 -12 6z"/>
    <path d="M2638 83 c6 -3 12 -14 12 -26 0 -31 15 -51 33 -44 9 3 18 1 20 -6 2 -7 8 -9 12 -4 11 9 2 18 -21 21 -10 2 -20 9 -22 16 -3 7 0 10 6 6 6 -3 9 4 8 17 -1 19 -7 24 -31 24 -16 0 -24 -2 -17 -4z"/>
    <path d="M2819 70 c-13 -10 -20 -19 -16 -20 4 0 17 9 29 20 28 26 17 26 -13 0z"/>
    <path d="M2865 80 c3 -5 8 -10 11 -10 2 0 4 5 4 10 0 6 -5 10 -11 10 -5 0 -7 -4 -4 -10z"/>
    <path d="M2965 73 c2 -10 4 -21 4 -25 1 -5 5 -8 10 -8 10 0 3 38 -9 45 -5 3 -7 -3 -5 -12z"/>
    <path d="M673 52 c-40 -14 -70 -28 -68 -32 2 -4 -16 -2 -40 3 -38 9 -43 13 -32 25 10 13 9 14 -11 3 -12 -6 -26 -10 -30 -7 -5 3 -19 7 -33 9 -13 3 -28 7 -34 9 -6 1 -10 -1 -10 -7 0 -5 7 -10 15 -10 8 -1 42 -8 75 -16 50 -11 56 -14 35 -20 -17 -5 -6 -7 34 -8 33 -1 56 2 53 6 -8 7 23 32 41 33 7 0 10 -6 7 -13 -4 -6 0 -4 8 6 16 19 32 24 21 5 -4 -7 -3 -8 4 -4 8 5 12 0 12 -13 0 -22 24 -29 35 -11 3 6 -1 7 -9 4 -22 -8 -21 24 1 48 20 22 16 22 -74 -10z"/>
    <path d="M1335 60 c-5 -14 -15 -20 -38 -20 -18 0 -27 -4 -21 -9 17 -16 72 -1 79 23 6 17 9 14 15 -19 5 -31 8 -36 14 -22 5 9 16 17 25 17 11 0 7 7 -14 25 -37 30 -52 31 -60 5z"/>
    <path d="M1723 73 c4 -3 -3 -11 -15 -17 -11 -6 -25 -22 -30 -35 -8 -24 -8 -24 10 -8 10 9 23 17 29 17 11 0 23 22 23 41 0 5 -5 9 -12 9 -6 0 -8 -3 -5 -7z"/>
    <path d="M1800 54 c0 -14 4 -23 9 -20 5 3 7 15 4 26 -7 28 -13 25 -13 -6z"/>
    <path d="M1944 63 c-7 -11 -21 -17 -37 -15 -15 1 -27 -2 -27 -8 0 -5 17 -8 38 -7 32 1 38 5 40 24 2 28 0 28 -14 6z"/>
    <path d="M2607 61 c-3 -12 0 -24 5 -28 7 -3 8 -1 4 5 -4 7 -2 12 3 12 10 0 15 -14 12 -33 -1 -5 3 -6 9 -2 10 6 6 17 -18 53 -7 11 -10 9 -15 -7z"/>
    <path d="M2725 70 c-3 -5 -1 -10 4 -10 6 0 11 5 11 10 0 6 -2 10 -4 10 -3 0 -8 -4 -11 -10z"/>
    <path d="M264 46 c-29 -15 -38 -24 -30 -31 17 -14 36 -17 36 -5 0 6 18 10 41 10 22 0 38 -3 36 -7 -3 -5 8 -8 25 -9 20 -1 25 2 16 7 -10 7 -9 9 4 9 9 0 20 -5 23 -10 8 -13 35 -13 35 1 0 5 -5 7 -10 4 -6 -4 -17 -2 -23 4 -7 5 -22 10 -32 11 -64 1 -80 6 -79 23 1 9 1 17 0 16 0 -1 -19 -11 -42 -23z m16 -10 c0 -3 -4 -8 -10 -11 -5 -3 -10 -1 -10 4 0 6 5 11 10 11 6 0 10 -2 10 -4z"/>
    <path d="M571 60 c-9 -5 -4 -7 13 -7 29 0 32 2 13 10 -8 3 -20 2 -26 -3z"/>
    <path d="M620 60 c0 -5 5 -10 10 -10 6 0 10 5 10 10 0 6 -4 10 -10 10 -5 0 -10 -4 -10 -10z"/>
    <path d="M2750 60 c0 -4 9 -10 21 -13 12 -3 19 -1 17 5 -5 13 -38 20 -38 8z"/>
    <path d="M2900 60 c0 -6 7 -10 15 -10 8 0 15 2 15 4 0 2 -7 6 -15 10 -8 3 -15 1 -15 -4z"/>
    <path d="M320 53 c0 -5 13 -8 29 -8 16 0 27 3 24 8 -2 4 -15 7 -29 7 -13 0 -24 -3 -24 -7z"/>
    <path d="M1058 53 c6 -2 18 -2 25 0 6 3 1 5 -13 5 -14 0 -19 -2 -12 -5z"/>
    <path d="M1143 46 c1 -14 -6 -22 -23 -26 -15 -3 -20 -9 -13 -13 6 -4 30 0 53 8 50 18 50 18 50 5 0 -5 -8 -10 -17 -11 -13 0 -14 -2 -4 -6 8 -3 20 2 26 11 11 14 14 15 25 1 7 -8 22 -15 34 -15 14 1 3 10 -34 29 -39 20 -60 26 -72 20 -11 -6 -18 -5 -22 4 -3 6 -4 3 -3 -7z"/>
    <path d="M1433 33 c-12 -12 -18 -25 -13 -28 5 -3 14 3 20 14 6 13 17 18 28 15 10 -4 13 -2 7 3 -5 4 -12 11 -15 14 -3 3 -15 -5 -27 -18z"/>
    <path d="M1598 47 c-12 -4 -31 -6 -41 -3 -12 3 -21 -3 -27 -17 -5 -12 -9 -16 -9 -9 -1 6 -6 12 -12 12 -5 0 -8 -4 -4 -9 3 -5 -3 -12 -12 -14 -11 -3 -7 -5 10 -6 16 -1 30 5 33 14 4 8 10 15 16 15 5 0 6 -4 3 -10 -3 -5 -1 -10 4 -10 6 0 11 5 11 11 0 6 6 9 13 6 7 -3 24 1 38 9 31 17 39 17 39 0 0 -8 -8 -17 -17 -20 -15 -4 -15 -5 1 -3 10 1 23 12 27 25 8 20 6 22 -21 20 -16 -1 -39 -6 -52 -11z"/>
    <path d="M2824 39 c-10 -12 -28 -25 -39 -29 -11 -4 15 -7 60 -7 44 1 72 3 62 5 -10 2 -16 9 -14 16 5 14 -32 14 -52 1 -15 -9 -14 8 1 23 7 7 10 12 7 12 -3 0 -14 -10 -25 -21z"/>
    <path d="M2170 39 c0 -5 5 -7 10 -4 6 3 10 8 10 11 0 2 -4 4 -10 4 -5 0 -10 -5 -10 -11z"/>
    <path d="M2731 40 c-1 -18 16 -46 23 -40 2 3 -2 16 -9 30 -8 15 -14 19 -14 10z"/>
    <path d="M2924 34 c-18 -14 -18 -14 6 -3 31 14 36 19 24 19 -6 0 -19 -7 -30 -16z"/>
    <path d="M911 26 c-15 -9 -20 -16 -12 -20 6 -4 11 -2 11 5 0 9 3 9 14 0 16 -13 29 -1 18 16 -5 8 -14 8 -31 -1z"/>
    <path d="M1040 25 c-7 -8 -16 -12 -21 -9 -5 3 -9 1 -9 -4 0 -12 49 -12 56 -1 3 5 0 9 -6 9 -6 0 -8 5 -5 10 9 15 -1 12 -15 -5z"/>
    <path d="M2007 33 c-3 -5 1 -14 8 -20 11 -10 13 -9 12 7 -1 20 -12 26 -20 13z"/>
    <path d="M2120 27 c0 -7 8 -13 18 -13 10 0 19 6 19 13 0 7 -9 13 -19 13 -10 0 -18 -6 -18 -13z"/>
    <path d="M2538 33 c7 -3 16 -2 19 1 4 3 -2 6 -13 5 -11 0 -14 -3 -6 -6z"/>
    <path d="M2385 20 c-3 -5 -5 -10 -3 -11 16 -3 59 -7 57 -5 -18 16 -49 25 -54 16z"/>
    <path d="M2950 15 l-25 -14 28 2 c16 1 33 7 39 14 15 18 -10 17 -42 -2z"/>
    <path d="M1781 11 c-7 -5 1 -8 19 -8 16 0 30 3 30 7 0 9 -34 10 -49 1z"/>
    <path d="M468 3 c7 -3 16 -2 19 1 4 3 -2 6 -13 5 -11 0 -14 -3 -6 -6z"/>
    <path d="M658 3 c6 -2 18 -2 25 0 6 3 1 5 -13 5 -14 0 -19 -2 -12 -5z"/>
    <path d="M1858 3 c7 -3 16 -2 19 1 4 3 -2 6 -13 5 -11 0 -14 -3 -6 -6z"/>
  </g>
</svg>