<?xml version="1.0" standalone="no"?>
<!DOCTYPE svg PUBLIC "-//W3C//DTD SVG 20010904//EN"
 "http://www.w3.org/TR/2001/REC-SVG-20010904/DTD/svg10.dtd">
<svg version="1.0" xmlns="http://www.w3.org/2000/svg"
 width="300.000000pt" height="43.000000pt" viewBox="0 0 300.000000 43.000000"
 preserveAspectRatio="xMidYMid meet">
<metadata>
Created by potrace 1.10, written by Peter Selinger 2001-2011
</metadata>
<g transform="translate(0.000000,43.000000) scale(0.100000,-0.100000)"
fill="fff" stroke="none">
<path d="M1340 370 c0 -36 -3 -40 -24 -40 -14 0 -28 -4 -31 -10 -3 -5 -19 -10
-34 -10 -16 0 -34 -7 -41 -15 -7 -9 -27 -15 -44 -14 -17 0 -44 -2 -61 -4 -16
-3 -79 -8 -139 -12 -60 -4 -146 -14 -190 -22 -45 -8 -95 -17 -113 -20 -17 -3
-39 -14 -49 -24 -17 -19 -68 -26 -78 -10 -10 16 -61 19 -92 6 -23 -9 -35 -10
-43 -2 -7 7 -21 5 -46 -9 -19 -10 -35 -22 -35 -27 0 -5 15 0 34 11 22 13 37
17 44 10 6 -6 24 -5 51 3 36 11 47 10 77 -5 39 -18 62 -15 104 14 42 30 267
62 515 74 28 1 61 9 75 16 14 8 29 13 33 12 4 -1 18 3 30 9 38 21 88 20 129
-3 21 -12 38 -25 38 -30 0 -4 5 -8 10 -8 6 0 23 -9 38 -20 21 -15 35 -17 62
-11 29 6 41 3 68 -18 34 -25 122 -40 122 -20 0 5 13 9 29 9 25 0 28 -3 25 -22
-3 -15 0 -12 10 9 19 41 47 56 72 39 19 -13 65 -28 96 -31 10 -1 24 -8 32 -14
16 -13 60 -6 91 15 21 15 59 19 52 7 -3 -5 13 -7 36 -7 33 1 45 -4 65 -28 15
-17 22 -36 19 -48 -3 -11 -1 -20 4 -20 5 0 9 5 9 10 0 6 5 10 10 10 6 0 10
-11 10 -25 0 -14 -4 -25 -9 -25 -21 0 -41 13 -41 26 0 8 -8 14 -18 14 -10 0
-23 5 -29 11 -5 5 -21 11 -34 13 -14 1 -30 5 -35 9 -6 3 -27 -5 -46 -19 -33
-23 -36 -30 -32 -62 3 -21 12 -44 21 -52 14 -13 15 -13 10 3 -4 10 -1 17 6 17
8 0 8 3 -2 9 -25 16 -2 29 43 26 30 -2 46 1 49 10 4 10 -7 12 -49 8 l-54 -5
11 26 c13 29 46 35 55 11 5 -11 10 -13 19 -5 14 11 48 3 40 -10 -3 -5 3 -15
13 -22 27 -18 38 -58 18 -58 -9 0 -16 -4 -16 -9 0 -10 42 -6 65 7 12 6 14 11
6 16 -6 4 -11 4 -11 1 0 -3 -6 0 -14 7 -17 16 -9 33 9 18 9 -7 15 -7 23 2 14
18 20 73 7 71 -6 -1 -12 8 -12 20 -2 20 -1 21 11 4 7 -9 18 -17 24 -17 5 0 8
-10 5 -22 l-4 -23 13 22 13 21 30 -24 c28 -23 29 -26 13 -38 -25 -18 -23 -29
3 -16 23 13 46 0 58 -34 7 -19 8 -19 13 2 4 14 2 20 -5 15 -6 -4 -8 0 -4 10 5
12 1 17 -12 17 -10 0 -26 11 -35 25 -9 14 -33 40 -53 59 -32 29 -40 32 -75 26
-48 -9 -58 4 -19 25 37 19 65 19 80 1 13 -15 101 -20 146 -7 23 6 39 3 67 -13
21 -12 38 -25 38 -29 0 -18 46 -46 76 -47 17 0 48 -7 69 -15 23 -10 41 -13 48
-7 7 5 26 12 42 16 17 4 44 14 62 22 28 14 34 14 62 -1 17 -8 31 -12 31 -7 0
5 -15 17 -33 27 -31 16 -35 17 -59 1 -42 -27 -123 -48 -150 -37 -13 5 -39 12
-59 16 -21 3 -60 24 -94 51 -55 42 -62 45 -99 38 -55 -10 -111 -6 -153 11 -30
13 -38 13 -63 0 -33 -17 -80 -19 -127 -6 -25 7 -40 4 -78 -15 -38 -19 -50 -21
-66 -11 -10 6 -19 15 -19 18 0 3 -11 4 -24 2 -15 -3 -41 4 -66 18 -40 23 -41
23 -72 4 -18 -10 -43 -20 -57 -22 -15 -2 -45 -6 -69 -9 -36 -5 -48 -2 -77 20
-29 22 -40 25 -75 20 -32 -5 -45 -3 -63 13 -32 28 -78 56 -112 69 -27 10 -29
15 -27 47 2 22 -1 37 -7 37 -6 0 -11 -18 -11 -40z"/>
<path d="M1331 259 c0 -15 -7 -32 -15 -38 -11 -9 -14 -8 -12 6 0 11 -5 17 -13
15 -8 -2 -17 2 -21 8 -5 8 -9 7 -13 -4 -4 -10 -1 -16 8 -16 8 0 24 -9 36 -21
15 -15 28 -19 45 -15 23 6 24 5 14 -13 -8 -17 -8 -19 4 -15 11 4 13 0 9 -15
-3 -12 0 -28 7 -36 7 -8 9 -15 4 -15 -5 0 4 -9 20 -19 36 -24 67 -13 64 24 -1
13 -6 21 -10 19 -5 -3 -6 -10 -3 -15 4 -5 0 -9 -7 -9 -9 0 -9 -3 2 -10 10 -6
11 -10 3 -10 -19 0 -28 4 -26 12 2 4 -5 4 -14 1 -10 -4 -14 -2 -10 4 4 6 0 16
-7 22 -22 18 -13 67 10 63 11 -2 25 -11 32 -20 8 -11 12 -12 12 -3 0 10 3 11
14 2 11 -9 16 -9 22 0 4 7 2 15 -4 17 -7 2 -10 7 -7 12 3 4 -2 10 -10 13 -10
4 -12 1 -9 -11 3 -9 -2 -6 -10 8 -9 14 -15 19 -16 11 0 -11 -4 -10 -14 4 -13
18 -17 18 -42 5 -16 -8 -32 -16 -36 -18 -5 -2 -8 4 -8 12 0 10 9 16 23 17 15
1 17 3 5 6 -9 2 -19 14 -21 26 -4 19 -4 18 -6 -4z m78 -56 c0 -10 -3 -13 -5
-6 -3 7 -12 9 -21 6 -11 -4 -14 -2 -9 5 11 18 36 14 35 -5z"/>
<path d="M1216 254 c-11 -8 -18 -14 -15 -15 2 0 12 -2 21 -4 21 -4 34 13 22
25 -5 5 -18 2 -28 -6z"/>
<path d="M1168 243 c7 -3 16 -2 19 1 4 3 -2 6 -13 5 -11 0 -14 -3 -6 -6z"/>
<path d="M1100 230 c8 -5 29 -9 45 -9 29 1 29 1 5 9 -14 4 -34 8 -45 9 -16 1
-17 -1 -5 -9z"/>
<path d="M946 215 c-16 -12 -22 -12 -29 -2 -6 8 -7 7 -4 -4 3 -9 1 -22 -4 -28
-6 -7 -5 -8 2 -2 6 5 18 7 27 3 14 -5 14 -6 0 -11 -14 -5 -14 -8 -2 -19 12
-11 14 -10 14 3 0 9 9 15 26 15 30 0 28 24 -2 27 -18 3 -18 2 1 -6 16 -8 17
-10 3 -10 -9 -1 -24 2 -33 5 -14 6 -14 8 4 20 11 8 28 11 38 8 15 -5 15 -4 3
5 -19 14 -21 13 -44 -4z"/>
<path d="M1184 219 c-3 -5 9 -9 25 -9 17 0 31 2 31 4 0 8 -51 13 -56 5z"/>
<path d="M815 206 c-11 -8 -25 -12 -31 -9 -7 2 -15 0 -19 -6 -3 -7 0 -8 9 -5
20 8 21 -10 1 -26 -16 -14 -20 -40 -6 -40 5 0 14 7 21 15 7 8 21 15 31 15 10
0 23 9 29 20 6 11 7 20 3 19 -27 -5 -35 1 -23 16 16 19 10 19 -15 1z m10 -22
c13 -5 14 -8 3 -15 -21 -14 -38 -10 -32 6 7 17 7 17 29 9z m-35 -38 c0 -3 -4
-8 -10 -11 -5 -3 -10 -1 -10 4 0 6 5 11 10 11 6 0 10 -2 10 -4z"/>
<path d="M1038 213 c-17 -4 -14 -33 4 -33 5 0 7 4 3 9 -3 5 3 11 12 13 10 2
14 6 8 9 -5 3 -18 4 -27 2z"/>
<path d="M885 174 c4 -50 13 -53 11 -4 0 22 -4 40 -8 40 -3 0 -5 -16 -3 -36z"/>
<path d="M1513 198 c-15 -20 -23 -48 -14 -48 5 0 14 14 20 30 11 32 9 37 -6
18z"/>
<path d="M1531 161 c-19 -46 -24 -51 -38 -39 -14 11 -15 11 -11 -2 2 -8 19
-16 36 -18 18 -2 32 -8 32 -13 0 -6 7 -3 16 5 19 20 28 20 44 1 18 -21 40 -19
40 5 0 11 -4 20 -10 20 -5 0 -7 -8 -4 -17 4 -13 2 -12 -8 3 -10 16 -19 19 -38
13 -14 -4 -35 -7 -48 -8 l-23 -1 22 39 c12 21 19 45 17 52 -2 7 -14 -11 -27
-40z"/>
<path d="M726 178 c-9 -12 -16 -28 -16 -35 0 -7 -4 -13 -10 -13 -5 0 -6 8 -3
18 6 15 4 15 -9 4 -9 -7 -15 -22 -13 -32 3 -13 -2 -18 -16 -17 -24 2 -25 17
-1 18 10 0 12 3 4 6 -6 2 -10 9 -6 14 3 5 -1 16 -9 24 -13 12 -15 12 -20 -5
-3 -11 -1 -20 3 -20 4 0 6 -9 3 -20 -3 -13 -14 -20 -29 -20 -13 0 -24 -5 -24
-11 0 -10 17 -9 110 7 52 10 74 26 25 19 -37 -5 -38 -4 -12 6 15 6 25 15 22
20 -3 4 2 20 11 34 20 31 11 34 -10 3z"/>
<path d="M1070 190 c-13 -8 -12 -10 3 -10 9 0 17 5 17 10 0 12 -1 12 -20 0z"/>
<path d="M1104 185 c-4 -17 -12 -20 -40 -17 -19 2 -34 0 -34 -6 0 -5 12 -7 26
-4 15 3 29 -1 34 -8 6 -9 10 -7 14 8 8 23 46 19 46 -4 0 -17 16 -18 23 -1 6
16 -15 35 -32 29 -7 -2 -17 2 -22 9 -7 11 -10 10 -15 -6z"/>
<path d="M1578 182 c-11 -12 -11 -16 0 -20 10 -3 10 -7 0 -20 -12 -15 -11 -16
4 -4 9 8 21 11 26 9 4 -3 14 -2 22 4 11 6 12 9 2 9 -7 0 -12 7 -10 16 4 22
-28 26 -44 6z m36 -7 c-7 -17 -20 -20 -29 -6 -3 5 3 12 12 14 10 3 19 5 20 6
1 0 0 -6 -3 -14z"/>
<path d="M1855 186 l-30 -13 32 1 c19 1 33 6 33 14 0 14 3 14 -35 -2z"/>
<path d="M1908 188 c6 -6 18 -8 28 -6 14 3 12 5 -9 10 -19 3 -25 2 -19 -4z"/>
<path d="M1182 170 c7 -11 25 -24 40 -29 16 -6 28 -16 28 -22 0 -10 -3 -10
-12 -1 -15 15 -28 15 -28 1 0 -5 4 -8 9 -4 5 3 12 1 16 -5 3 -5 16 -10 28 -10
18 0 19 2 7 11 -12 8 -11 9 5 7 16 -3 19 -11 18 -36 -2 -25 0 -30 13 -25 9 3
12 8 5 12 -6 4 -7 12 -1 21 12 18 13 31 3 28 -14 -3 -112 45 -108 53 3 4 -2
10 -11 13 -24 9 -25 8 -12 -14z"/>
<path d="M2104 175 c-16 -12 -16 -14 -3 -15 9 0 22 7 29 15 16 19 0 19 -26 0z"/>
<path d="M1762 155 c-14 -30 -12 -31 10 -5 10 10 14 22 9 24 -4 3 -13 -6 -19
-19z"/>
<path d="M2186 171 c-4 -5 1 -8 9 -7 21 3 31 16 12 16 -9 0 -18 -4 -21 -9z"/>
<path d="M2440 166 c0 -8 -3 -22 -7 -32 -4 -12 -2 -15 8 -12 8 3 13 11 11 18
-2 8 3 10 13 7 22 -9 19 6 -5 21 -16 10 -20 10 -20 -2z"/>
<path d="M2501 170 c0 -8 4 -22 9 -30 12 -18 12 -2 0 25 -6 13 -9 15 -9 5z"/>
<path d="M445 160 c-17 -7 -15 -9 13 -9 17 -1 32 4 32 9 0 12 -17 12 -45 0z"/>
<path d="M1655 160 c-1 -3 3 -11 11 -18 8 -7 14 -8 14 -3 0 5 8 10 18 10 43 1
52 5 43 14 -7 7 -15 6 -26 -3 -8 -7 -15 -8 -15 -3 0 9 -39 13 -45 3z"/>
<path d="M2530 159 c0 -4 7 -9 15 -13 8 -3 15 -11 15 -17 0 -8 -4 -8 -15 1
-30 25 -14 -7 20 -40 19 -19 35 -29 35 -24 0 6 -5 15 -12 22 -6 6 -13 22 -15
34 -2 13 -8 25 -13 26 -6 2 -8 7 -6 11 3 4 -1 8 -9 8 -8 0 -15 -4 -15 -8z"/>
<path d="M231 146 c-8 -9 -44 -17 -101 -21 -84 -7 -90 -9 -90 -30 0 -12 -9
-30 -20 -40 -11 -10 -20 -23 -20 -28 0 -6 11 0 25 13 14 13 25 31 25 40 0 12
17 19 71 28 39 7 75 9 81 6 5 -3 20 4 33 16 15 14 32 21 45 17 11 -3 23 -1 26
4 9 15 -63 10 -75 -5z"/>
<path d="M866 141 c-3 -4 -10 -20 -16 -35 -9 -24 -8 -26 7 -18 9 5 17 21 18
36 1 28 -1 31 -9 17z"/>
<path d="M1783 138 c-8 -13 -13 -33 -15 -55 -1 -7 -5 -13 -9 -13 -4 0 -9 -15
-11 -34 -2 -19 0 -32 4 -30 4 3 8 11 8 19 0 7 6 20 14 27 7 8 16 33 19 56 5
44 3 50 -10 30z"/>
<path d="M1865 140 c3 -6 -2 -13 -12 -16 -10 -3 -27 -9 -38 -14 -17 -7 -15 -8
8 -6 15 2 30 6 34 9 9 10 33 8 33 -2 0 -5 -11 -12 -25 -15 -14 -4 -25 -11 -25
-17 0 -6 -4 -8 -10 -4 -5 3 -5 -7 1 -25 13 -35 39 -41 38 -7 0 12 -3 16 -6 10
-6 -17 -23 -16 -23 1 0 15 27 30 48 27 6 -1 12 4 12 11 0 7 3 24 6 38 4 20 3
22 -5 10 -7 -10 -11 -11 -11 -2 0 6 -7 12 -16 12 -8 0 -12 -5 -9 -10z"/>
<path d="M1927 143 c-12 -11 -8 -44 6 -42 38 5 44 -1 40 -38 -2 -21 -5 -43 -8
-50 -2 -7 2 -10 9 -7 8 3 12 14 9 25 -4 15 0 19 22 19 22 0 26 4 22 20 -3 11
-1 20 4 20 5 0 9 -6 9 -14 0 -8 4 -18 10 -21 6 -4 7 1 3 12 -17 47 -54 61 -45
17 3 -19 1 -25 -8 -22 -8 2 -16 10 -18 18 -3 7 0 10 7 6 7 -5 10 0 7 16 -3 13
-5 26 -5 31 -1 4 -9 7 -18 7 -14 0 -15 -2 -5 -9 11 -7 11 -9 -1 -14 -19 -7
-41 8 -33 22 8 12 3 15 -7 4z"/>
<path d="M2050 136 c7 -7 13 -7 20 0 6 6 3 10 -10 10 -13 0 -16 -4 -10 -10z"/>
<path d="M2208 143 c7 -3 16 -2 19 1 4 3 -2 6 -13 5 -11 0 -14 -3 -6 -6z"/>
<path d="M520 130 c0 -5 -6 -7 -14 -4 -8 3 -17 0 -22 -7 -5 -9 -2 -10 9 -6 17
6 24 -7 10 -16 -5 -2 -2 -2 4 -1 7 2 35 6 63 10 27 4 50 10 50 14 0 9 -44 5
-61 -6 -8 -5 -11 -2 -7 7 4 10 -1 15 -13 16 -10 1 -19 -2 -19 -7z m20 -10 c0
-5 -5 -10 -11 -10 -5 0 -7 5 -4 10 3 6 8 10 11 10 2 0 4 -4 4 -10z"/>
<path d="M1335 130 c-3 -5 1 -10 9 -10 9 0 16 5 16 10 0 6 -4 10 -9 10 -6 0
-13 -4 -16 -10z"/>
<path d="M1828 133 c7 -3 16 -2 19 1 4 3 -2 6 -13 5 -11 0 -14 -3 -6 -6z"/>
<path d="M2250 129 c0 -5 5 -7 10 -4 6 3 10 8 10 11 0 2 -4 4 -10 4 -5 0 -10
-5 -10 -11z"/>
<path d="M2480 130 c-8 -5 -11 -10 -6 -10 5 0 3 -6 -3 -14 -8 -10 -9 -16 -1
-21 6 -4 9 -1 8 6 -2 6 2 13 8 16 7 2 10 -10 9 -33 -3 -42 4 -74 15 -74 4 0 4
18 0 40 -4 22 -3 37 1 34 15 -9 10 23 -6 36 -8 7 -12 16 -9 21 7 11 3 11 -16
-1z"/>
<path d="M267 116 c-9 -7 -17 -19 -17 -25 0 -7 -4 -10 -9 -6 -5 3 -13 0 -17
-6 -4 -8 -3 -9 4 -5 7 4 12 3 12 -2 0 -6 -11 -9 -25 -8 -24 1 -37 16 -13 16 6
0 9 2 6 5 -9 9 -38 -7 -32 -17 5 -7 -4 -9 -24 -6 -21 3 -33 0 -37 -10 -3 -7
-11 -12 -18 -9 -6 2 -17 -3 -24 -12 -8 -11 -12 -12 -13 -3 0 6 -5 12 -11 12
-8 0 -9 -4 0 -13 6 -8 7 -17 3 -22 -4 -4 4 -2 17 5 13 6 34 13 47 15 21 2 22
0 12 -14 -11 -14 -11 -14 3 -4 9 7 19 10 22 6 4 -3 7 -4 7 0 0 3 -7 12 -15 20
-12 13 -10 14 18 12 41 -4 39 -2 28 -23 -8 -14 -5 -18 12 -19 12 -1 17 1 11 5
-11 7 -15 42 -5 39 20 -5 70 30 74 53 6 31 6 31 -16 16z"/>
<path d="M303 105 c-13 -28 -10 -30 19 -14 14 8 23 8 31 0 14 -14 37 -14 37
-1 0 5 -7 7 -15 4 -30 -12 -14 7 18 21 17 8 26 14 19 15 -7 0 -22 -5 -33 -11
-15 -8 -24 -7 -37 3 -10 8 -13 9 -9 1 4 -6 3 -14 -2 -17 -5 -4 -11 1 -13 9 -2
10 -7 7 -15 -10z"/>
<path d="M910 115 c-14 -8 -21 -14 -16 -15 5 0 3 -6 -3 -14 -9 -11 -9 -15 1
-19 7 -3 -1 -6 -18 -6 -22 -1 -34 -8 -42 -24 -11 -20 -12 -20 -7 9 5 25 2 32
-19 42 -22 10 -24 9 -21 -10 3 -12 10 -25 17 -30 10 -6 9 -11 -4 -22 -25 -18
-22 -24 8 -18 14 2 28 11 31 18 4 10 10 11 26 3 21 -10 21 -10 3 5 -19 15 -19
16 8 16 18 0 25 -4 21 -13 -4 -6 3 -1 14 12 12 13 21 18 21 12 0 -7 5 -9 10
-6 6 3 9 18 9 33 -1 15 -3 20 -6 10 -4 -15 -32 -33 -40 -25 -9 10 11 37 35 46
15 5 20 10 12 10 -8 0 -26 -6 -40 -14z m-90 -56 c0 -6 -4 -7 -10 -4 -5 3 -10
11 -10 16 0 6 5 7 10 4 6 -3 10 -11 10 -16z"/>
<path d="M980 120 c-8 -5 -11 -10 -6 -10 5 0 3 -7 -4 -15 -8 -9 -8 -15 -2 -15
6 0 14 9 17 20 3 11 13 20 21 20 14 0 14 -2 0 -15 -8 -9 -13 -22 -10 -30 4
-10 0 -15 -14 -15 -25 0 -38 -29 -16 -37 8 -3 18 -3 21 1 4 3 -2 6 -13 6 -15
0 -16 2 -4 9 8 6 18 7 22 5 5 -3 13 8 19 24 10 28 39 52 39 33 0 -5 -6 -11
-12 -13 -7 -3 -3 -7 9 -10 12 -3 22 -3 21 1 -2 20 4 31 17 31 9 0 15 -10 16
-22 1 -22 1 -22 8 2 6 20 3 26 -13 31 -12 3 -31 2 -43 -2 -13 -5 -25 -4 -28 1
-8 13 -26 12 -45 0z"/>
<path d="M1141 117 c-5 -7 -15 -26 -20 -42 -10 -26 -9 -28 2 -13 8 10 17 15
21 11 4 -4 4 0 0 10 -4 12 -1 17 11 17 11 0 15 -5 11 -15 -4 -11 2 -15 20 -15
14 0 22 4 19 10 -3 6 -1 10 4 10 6 0 11 -8 11 -19 0 -25 36 -34 52 -13 9 10 9
13 1 9 -6 -4 -14 -3 -18 3 -3 6 -20 17 -37 26 -16 9 -27 11 -24 5 4 -6 2 -11
-3 -11 -6 0 -11 6 -11 14 0 19 -26 28 -39 13z"/>
<path d="M440 109 c0 -5 -4 -8 -9 -5 -5 3 -15 -2 -22 -11 -12 -15 -12 -16 6
-9 11 5 25 9 31 9 12 0 15 27 2 27 -4 0 -8 -5 -8 -11z"/>
<path d="M1660 93 c0 -22 2 -25 10 -13 13 20 13 40 0 40 -5 0 -10 -12 -10 -27z"/>
<path d="M1692 100 c-19 -30 -14 -36 8 -10 22 25 24 30 12 30 -4 0 -13 -9 -20
-20z"/>
<path d="M1727 107 c-7 -20 17 -24 29 -5 4 6 3 8 -4 4 -5 -3 -12 -1 -14 6 -3
8 -7 6 -11 -5z"/>
<path d="M2926 111 c-5 -8 12 -51 19 -51 4 0 3 4 0 10 -3 5 -1 18 4 28 8 14 6
19 -5 19 -8 0 -16 -3 -18 -6z"/>
<path d="M2377 93 c4 -11 2 -14 -5 -9 -8 5 -10 2 -6 -8 5 -14 -8 -20 -36 -18
-3 0 -7 -13 -8 -29 -3 -34 14 -39 24 -6 7 21 7 21 15 2 7 -20 8 -20 8 1 1 11
8 29 16 40 18 24 18 31 1 37 -11 4 -13 1 -9 -10z"/>
<path d="M2893 97 c0 -8 6 -14 14 -14 9 0 10 4 2 14 -6 7 -12 13 -14 13 -1 0
-2 -6 -2 -13z"/>
<path d="M2981 93 c7 -12 15 -20 18 -17 3 2 -3 12 -13 22 -17 16 -18 16 -5 -5z"/>
<path d="M1081 84 c0 -11 3 -14 6 -6 3 7 2 16 -1 19 -3 4 -6 -2 -5 -13z"/>
<path d="M1580 86 c0 -23 16 -27 17 -5 1 10 -2 19 -8 19 -5 0 -9 -6 -9 -14z"/>
<path d="M2533 86 c0 -8 11 -19 24 -25 17 -8 23 -18 21 -32 -2 -16 3 -23 20
-25 23 -4 23 -3 -7 34 -41 52 -58 66 -58 48z"/>
<path d="M470 82 c0 -15 23 -20 45 -11 20 9 20 9 0 7 -11 -2 -26 1 -32 5 -7 5
-13 4 -13 -1z"/>
<path d="M545 80 c-3 -5 -2 -10 4 -10 5 0 13 5 16 10 3 6 2 10 -4 10 -5 0 -13
-4 -16 -10z"/>
<path d="M695 80 c-16 -7 -17 -9 -3 -9 9 -1 20 4 23 9 7 11 7 11 -20 0z"/>
<path d="M1520 75 c0 -8 2 -15 4 -15 2 0 6 7 10 15 3 8 1 15 -4 15 -6 0 -10
-7 -10 -15z"/>
<path d="M1925 81 c-3 -5 -2 -12 3 -15 5 -3 9 1 9 9 0 17 -3 19 -12 6z"/>
<path d="M2638 83 c6 -3 12 -14 12 -26 0 -31 15 -51 33 -44 9 3 18 1 20 -6 2
-7 8 -9 12 -4 11 9 2 18 -21 21 -10 2 -20 9 -22 16 -3 7 0 10 6 6 6 -3 9 4 8
17 -1 19 -7 24 -31 24 -16 0 -24 -2 -17 -4z"/>
<path d="M2819 70 c-13 -10 -20 -19 -16 -20 4 0 17 9 29 20 28 26 17 26 -13 0z"/>
<path d="M2865 80 c3 -5 8 -10 11 -10 2 0 4 5 4 10 0 6 -5 10 -11 10 -5 0 -7
-4 -4 -10z"/>
<path d="M2965 73 c2 -10 4 -21 4 -25 1 -5 5 -8 10 -8 10 0 3 38 -9 45 -5 3
-7 -3 -5 -12z"/>
<path d="M673 52 c-40 -14 -70 -28 -68 -32 2 -4 -16 -2 -40 3 -38 9 -43 13
-32 25 10 13 9 14 -11 3 -12 -6 -26 -10 -30 -7 -5 3 -19 7 -33 9 -13 3 -28 7
-34 9 -6 1 -10 -1 -10 -7 0 -5 7 -10 15 -10 8 -1 42 -8 75 -16 50 -11 56 -14
35 -20 -17 -5 -6 -7 34 -8 33 -1 56 2 53 6 -8 7 23 32 41 33 7 0 10 -6 7 -13
-4 -6 0 -4 8 6 16 19 32 24 21 5 -4 -7 -3 -8 4 -4 8 5 12 0 12 -13 0 -22 24
-29 35 -11 3 6 -1 7 -9 4 -22 -8 -21 24 1 48 20 22 16 22 -74 -10z"/>
<path d="M1335 60 c-5 -14 -15 -20 -38 -20 -18 0 -27 -4 -21 -9 17 -16 72 -1
79 23 6 17 9 14 15 -19 5 -31 8 -36 14 -22 5 9 16 17 25 17 11 0 7 7 -14 25
-37 30 -52 31 -60 5z"/>
<path d="M1723 73 c4 -3 -3 -11 -15 -17 -11 -6 -25 -22 -30 -35 -8 -24 -8 -24
10 -8 10 9 23 17 29 17 11 0 23 22 23 41 0 5 -5 9 -12 9 -6 0 -8 -3 -5 -7z"/>
<path d="M1800 54 c0 -14 4 -23 9 -20 5 3 7 15 4 26 -7 28 -13 25 -13 -6z"/>
<path d="M1944 63 c-7 -11 -21 -17 -37 -15 -15 1 -27 -2 -27 -8 0 -5 17 -8 38
-7 32 1 38 5 40 24 2 28 0 28 -14 6z"/>
<path d="M2607 61 c-3 -12 0 -24 5 -28 7 -3 8 -1 4 5 -4 7 -2 12 3 12 10 0 15
-14 12 -33 -1 -5 3 -6 9 -2 10 6 6 17 -18 53 -7 11 -10 9 -15 -7z"/>
<path d="M2725 70 c-3 -5 -1 -10 4 -10 6 0 11 5 11 10 0 6 -2 10 -4 10 -3 0
-8 -4 -11 -10z"/>
<path d="M264 46 c-29 -15 -38 -24 -30 -31 17 -14 36 -17 36 -5 0 6 18 10 41
10 22 0 38 -3 36 -7 -3 -5 8 -8 25 -9 20 -1 25 2 16 7 -10 7 -9 9 4 9 9 0 20
-5 23 -10 8 -13 35 -13 35 1 0 5 -5 7 -10 4 -6 -4 -17 -2 -23 4 -7 5 -22 10
-32 11 -64 1 -80 6 -79 23 1 9 1 17 0 16 0 -1 -19 -11 -42 -23z m16 -10 c0 -3
-4 -8 -10 -11 -5 -3 -10 -1 -10 4 0 6 5 11 10 11 6 0 10 -2 10 -4z"/>
<path d="M571 60 c-9 -5 -4 -7 13 -7 29 0 32 2 13 10 -8 3 -20 2 -26 -3z"/>
<path d="M620 60 c0 -5 5 -10 10 -10 6 0 10 5 10 10 0 6 -4 10 -10 10 -5 0
-10 -4 -10 -10z"/>
<path d="M2750 60 c0 -4 9 -10 21 -13 12 -3 19 -1 17 5 -5 13 -38 20 -38 8z"/>
<path d="M2900 60 c0 -6 7 -10 15 -10 8 0 15 2 15 4 0 2 -7 6 -15 10 -8 3 -15
1 -15 -4z"/>
<path d="M320 53 c0 -5 13 -8 29 -8 16 0 27 3 24 8 -2 4 -15 7 -29 7 -13 0
-24 -3 -24 -7z"/>
<path d="M1058 53 c6 -2 18 -2 25 0 6 3 1 5 -13 5 -14 0 -19 -2 -12 -5z"/>
<path d="M1143 46 c1 -14 -6 -22 -23 -26 -15 -3 -20 -9 -13 -13 6 -4 30 0 53
8 50 18 50 18 50 5 0 -5 -8 -10 -17 -11 -13 0 -14 -2 -4 -6 8 -3 20 2 26 11
11 14 14 15 25 1 7 -8 22 -15 34 -15 14 1 3 10 -34 29 -39 20 -60 26 -72 20
-11 -6 -18 -5 -22 4 -3 6 -4 3 -3 -7z"/>
<path d="M1433 33 c-12 -12 -18 -25 -13 -28 5 -3 14 3 20 14 6 13 17 18 28 15
10 -4 13 -2 7 3 -5 4 -12 11 -15 14 -3 3 -15 -5 -27 -18z"/>
<path d="M1598 47 c-12 -4 -31 -6 -41 -3 -12 3 -21 -3 -27 -17 -5 -12 -9 -16
-9 -9 -1 6 -6 12 -12 12 -5 0 -8 -4 -4 -9 3 -5 -3 -12 -12 -14 -11 -3 -7 -5
10 -6 16 -1 30 5 33 14 4 8 10 15 16 15 5 0 6 -4 3 -10 -3 -5 -1 -10 4 -10 6
0 11 5 11 11 0 6 6 9 13 6 7 -3 24 1 38 9 31 17 39 17 39 0 0 -8 -8 -17 -17
-20 -15 -4 -15 -5 1 -3 10 1 23 12 27 25 8 20 6 22 -21 20 -16 -1 -39 -6 -52
-11z"/>
<path d="M2824 39 c-10 -12 -28 -25 -39 -29 -11 -4 15 -7 60 -7 44 1 72 3 62
5 -10 2 -16 9 -14 16 5 14 -32 14 -52 1 -15 -9 -14 8 1 23 7 7 10 12 7 12 -3
0 -14 -10 -25 -21z"/>
<path d="M2170 39 c0 -5 5 -7 10 -4 6 3 10 8 10 11 0 2 -4 4 -10 4 -5 0 -10
-5 -10 -11z"/>
<path d="M2731 40 c-1 -18 16 -46 23 -40 2 3 -2 16 -9 30 -8 15 -14 19 -14 10z"/>
<path d="M2924 34 c-18 -14 -18 -14 6 -3 31 14 36 19 24 19 -6 0 -19 -7 -30
-16z"/>
<path d="M911 26 c-15 -9 -20 -16 -12 -20 6 -4 11 -2 11 5 0 9 3 9 14 0 16
-13 29 -1 18 16 -5 8 -14 8 -31 -1z"/>
<path d="M1040 25 c-7 -8 -16 -12 -21 -9 -5 3 -9 1 -9 -4 0 -12 49 -12 56 -1
3 5 0 9 -6 9 -6 0 -8 5 -5 10 9 15 -1 12 -15 -5z"/>
<path d="M2007 33 c-3 -5 1 -14 8 -20 11 -10 13 -9 12 7 -1 20 -12 26 -20 13z"/>
<path d="M2120 27 c0 -7 8 -13 18 -13 10 0 19 6 19 13 0 7 -9 13 -19 13 -10 0
-18 -6 -18 -13z"/>
<path d="M2538 33 c7 -3 16 -2 19 1 4 3 -2 6 -13 5 -11 0 -14 -3 -6 -6z"/>
<path d="M2385 20 c-3 -5 -5 -10 -3 -11 16 -3 59 -7 57 -5 -18 16 -49 25 -54
16z"/>
<path d="M2950 15 l-25 -14 28 2 c16 1 33 7 39 14 15 18 -10 17 -42 -2z"/>
<path d="M1781 11 c-7 -5 1 -8 19 -8 16 0 30 3 30 7 0 9 -34 10 -49 1z"/>
<path d="M468 3 c7 -3 16 -2 19 1 4 3 -2 6 -13 5 -11 0 -14 -3 -6 -6z"/>
<path d="M658 3 c6 -2 18 -2 25 0 6 3 1 5 -13 5 -14 0 -19 -2 -12 -5z"/>
<path d="M1858 3 c7 -3 16 -2 19 1 4 3 -2 6 -13 5 -11 0 -14 -3 -6 -6z"/>
</g>
</svg>
